Bodoni-36-Bold-Italic.ufo
<glyph name="dollar" format="2">
  <advance width="1199"/>
  <unicode hex="0024"/>
  <outline>
    <contour>
      <point x="757" y="1660" type="line"/>
      <point x="771" y="1660" type="line"/>
      <point x="351" y="-160" type="line"/>
      <point x="337" y="-160" type="line"/>
    </contour>
    <contour>
      <point x="919" y="1660" type="line"/>
      <point x="933" y="1660" type="line"/>
      <point x="513" y="-160" type="line"/>
      <point x="499" y="-160" type="line"/>
    </contour>
    <contour>
      <point x="500" y="1248" type="curve" smooth="yes"/>
      <point x="500" y="900"/>
      <point x="1130" y="1020"/>
      <point x="1130" y="490" type="curve" smooth="yes"/>
      <point x="1130" y="160"/>
      <point x="812" y="-30"/>
      <point x="530" y="-30" type="curve" smooth="yes"/>
      <point x="258" y="-30"/>
      <point x="60" y="145"/>
      <point x="60" y="325" type="curve" smooth="yes"/>
      <point x="60" y="427"/>
      <point x="122" y="514"/>
      <point x="230" y="514" type="curve" smooth="yes"/>
      <point x="310" y="514"/>
      <point x="388" y="455"/>
      <point x="388" y="357" type="curve" smooth="yes"/>
      <point x="388" y="247"/>
      <point x="307" y="192"/>
      <point x="219" y="192" type="curve" smooth="yes"/>
      <point x="147" y="192"/>
      <point x="100" y="236"/>
      <point x="83" y="272" type="curve"/>
      <point x="112" y="124"/>
      <point x="288" y="-18"/>
      <point x="530" y="-18" type="curve" smooth="yes"/>
      <point x="742" y="-18"/>
      <point x="870" y="142"/>
      <point x="870" y="300" type="curve" smooth="yes"/>
      <point x="870" y="690"/>
      <point x="250" y="520"/>
      <point x="250" y="1030" type="curve" smooth="yes"/>
      <point x="250" y="1320"/>
      <point x="552" y="1520"/>
      <point x="804" y="1520" type="curve" smooth="yes"/>
      <point x="1020" y="1520"/>
      <point x="1220" y="1377"/>
      <point x="1220" y="1205" type="curve" smooth="yes"/>
      <point x="1220" y="1113"/>
      <point x="1161" y="1025"/>
      <point x="1053" y="1025" type="curve" smooth="yes"/>
      <point x="973" y="1025"/>
      <point x="892" y="1079"/>
      <point x="892" y="1184" type="curve" smooth="yes"/>
      <point x="892" y="1284"/>
      <point x="982" y="1338"/>
      <point x="1060" y="1338" type="curve" smooth="yes"/>
      <point x="1133" y="1338"/>
      <point x="1178" y="1293"/>
      <point x="1193" y="1261" type="curve"/>
      <point x="1168" y="1385"/>
      <point x="1011" y="1505"/>
      <point x="814" y="1505" type="curve" smooth="yes"/>
      <point x="602" y="1505"/>
      <point x="500" y="1376"/>
    </contour>
  </outline>
</glyph>
<glyph name="ampersand" format="2">
  <advance width="1677"/>
  <unicode hex="0026"/>
  <outline>
    <contour>
      <point x="831" y="931" type="line"/>
      <point x="969" y="1022"/>
      <point x="1032" y="1150"/>
      <point x="1032" y="1268" type="curve" smooth="yes"/>
      <point x="1032" y="1391"/>
      <point x="1003" y="1510"/>
      <point x="917" y="1510" type="curve" smooth="yes"/>
      <point x="797" y="1510"/>
      <point x="756" y="1366"/>
      <point x="756" y="1240" type="curve" smooth="yes"/>
      <point x="756" y="1170"/>
      <point x="780" y="1067"/>
      <point x="844" y="940" type="curve" smooth="yes"/>
      <point x="1222" y="190" type="line" smooth="yes"/>
      <point x="1263" y="106"/>
      <point x="1305" y="20"/>
      <point x="1385" y="20" type="curve" smooth="yes"/>
      <point x="1449" y="20"/>
      <point x="1521" y="62"/>
      <point x="1559" y="144" type="curve"/>
      <point x="1568" y="140" type="line"/>
      <point x="1530" y="52"/>
      <point x="1438" y="-20"/>
      <point x="1260" y="-20" type="curve" smooth="yes"/>
      <point x="1114" y="-20"/>
      <point x="988" y="26"/>
      <point x="882" y="212" type="curve" smooth="yes"/>
      <point x="508" y="940" type="line" smooth="yes"/>
      <point x="463" y="1023"/>
      <point x="446" y="1096"/>
      <point x="446" y="1166" type="curve" smooth="yes"/>
      <point x="446" y="1366"/>
      <point x="666" y="1520"/>
      <point x="938" y="1520" type="curve" smooth="yes"/>
      <point x="1112" y="1520"/>
      <point x="1320" y="1448"/>
      <point x="1320" y="1263" type="curve" smooth="yes"/>
      <point x="1320" y="1036"/>
      <point x="1007" y="986"/>
      <point x="836" y="924" type="curve"/>
    </contour>
    <contour>
      <point x="581" y="810" type="curve"/>
      <point x="587" y="802" type="line"/>
      <point x="463" y="719"/>
      <point x="360" y="561"/>
      <point x="360" y="350" type="curve" smooth="yes"/>
      <point x="360" y="169"/>
      <point x="500" y="17"/>
      <point x="688" y="17" type="curve" smooth="yes"/>
      <point x="1132" y="17"/>
      <point x="1606" y="420"/>
      <point x="1614" y="690" type="curve" smooth="yes"/>
      <point x="1615" y="724" type="line"/>
      <point x="1597" y="632"/>
      <point x="1519" y="570"/>
      <point x="1431" y="570" type="curve" smooth="yes"/>
      <point x="1331" y="570"/>
      <point x="1266" y="654"/>
      <point x="1266" y="734" type="curve" smooth="yes"/>
      <point x="1266" y="824"/>
      <point x="1346" y="898"/>
      <point x="1440" y="898" type="curve" smooth="yes"/>
      <point x="1546" y="898"/>
      <point x="1628" y="814"/>
      <point x="1628" y="702" type="curve" smooth="yes"/>
      <point x="1628" y="422"/>
      <point x="1148" y="-20"/>
      <point x="548" y="-20" type="curve" smooth="yes"/>
      <point x="272" y="-20"/>
      <point x="40" y="81"/>
      <point x="40" y="317" type="curve" smooth="yes"/>
      <point x="40" y="612"/>
      <point x="284" y="702"/>
    </contour>
  </outline>
</glyph>
<glyph name="parenleft" format="2">
  <advance width="746"/>
  <unicode hex="0028"/>
  <outline>
    <contour>
      <point x="565" y="-331" type="curve"/>
      <point x="559" y="-340" type="line"/>
      <point x="333" y="-240"/>
      <point x="167" y="24"/>
      <point x="167" y="370" type="curve" smooth="yes"/>
      <point x="167" y="956"/>
      <point x="603" y="1440"/>
      <point x="989" y="1600" type="curve"/>
      <point x="995" y="1591" type="line"/>
      <point x="687" y="1391"/>
      <point x="438" y="626"/>
      <point x="438" y="162" type="curve" smooth="yes"/>
      <point x="438" y="-92"/>
      <point x="475" y="-231"/>
    </contour>
  </outline>
</glyph>
<glyph name="comma" format="2">
  <advance width="549"/>
  <unicode hex="002C"/>
  <outline>
    <contour>
      <point x="50" y="155" type="curve" smooth="yes"/>
      <point x="50" y="251"/>
      <point x="138" y="336"/>
      <point x="244" y="336" type="curve" smooth="yes"/>
      <point x="352" y="336"/>
      <point x="441" y="261"/>
      <point x="441" y="115" type="curve" smooth="yes"/>
      <point x="441" y="-133"/>
      <point x="171" y="-312"/>
      <point x="-69" y="-312" type="curve"/>
      <point x="-69" y="-300" type="line"/>
      <point x="148" y="-300"/>
      <point x="428" y="-135"/>
      <point x="425" y="123" type="curve"/>
      <point x="408" y="44"/>
      <point x="330" y="-20"/>
      <point x="229" y="-20" type="curve" smooth="yes"/>
      <point x="115" y="-20"/>
      <point x="50" y="62"/>
    </contour>
  </outline>
</glyph>
<glyph name="zero" format="2">
  <advance width="1319"/>
  <unicode hex="0030"/>
  <outline>
    <contour>
      <point x="924" y="1520" type="curve" smooth="yes"/>
      <point x="1200" y="1520"/>
      <point x="1366" y="1300"/>
      <point x="1366" y="1052" type="curve" smooth="yes"/>
      <point x="1366" y="474"/>
      <point x="986" y="-20"/>
      <point x="584" y="-20" type="curve" smooth="yes"/>
      <point x="308" y="-20"/>
      <point x="142" y="200"/>
      <point x="142" y="448" type="curve" smooth="yes"/>
      <point x="142" y="1026"/>
      <point x="522" y="1520"/>
    </contour>
    <contour>
      <point x="924" y="1510" type="curve" smooth="yes"/>
      <point x="652" y="1510"/>
      <point x="438" y="630"/>
      <point x="438" y="278" type="curve" smooth="yes"/>
      <point x="438" y="128"/>
      <point x="460" y="-10"/>
      <point x="584" y="-10" type="curve" smooth="yes"/>
      <point x="856" y="-10"/>
      <point x="1070" y="890"/>
      <point x="1070" y="1222" type="curve" smooth="yes"/>
      <point x="1070" y="1372"/>
      <point x="1048" y="1510"/>
    </contour>
  </outline>
</glyph>
<glyph name="two" format="2">
  <advance width="2477"/>
  <unicode hex="0032"/>
  <outline>
    <contour>
      <point x="420" y="2212" type="curve"/>
      <point x="455" y="2355"/>
      <point x="588" y="2486"/>
      <point x="789" y="2486" type="curve" smooth="yes"/>
      <point x="975" y="2486"/>
      <point x="1126" y="2355"/>
      <point x="1126" y="2164" type="curve" smooth="yes"/>
      <point x="1126" y="1939"/>
      <point x="936" y="1790"/>
      <point x="751" y="1790" type="curve" smooth="yes"/>
      <point x="566" y="1790"/>
      <point x="381" y="1912"/>
      <point x="381" y="2166" type="curve" smooth="yes"/>
      <point x="381" y="2646"/>
      <point x="893" y="3112"/>
      <point x="1536" y="3112" type="curve" smooth="yes"/>
      <point x="1991" y="3112"/>
      <point x="2425" y="2929"/>
      <point x="2425" y="2474" type="curve" smooth="yes"/>
      <point x="2425" y="1986"/>
      <point x="1647" y="1597"/>
      <point x="1321" y="1376" type="curve" smooth="yes"/>
      <point x="291" y="614" type="line"/>
      <point x="2056" y="614" type="line"/>
      <point x="2126" y="922" type="line"/>
      <point x="2151" y="922" type="line"/>
      <point x="1942" y="0" type="line"/>
      <point x="-168" y="0" type="line"/>
      <point x="-69" y="409" type="line"/>
      <point x="1019" y="1192" type="line" smooth="yes"/>
      <point x="1455" y="1498"/>
      <point x="1765" y="1994"/>
      <point x="1765" y="2396" type="curve" smooth="yes"/>
      <point x="1765" y="2777"/>
      <point x="1618" y="3015"/>
      <point x="1278" y="3015" type="curve" smooth="yes"/>
      <point x="863" y="3015"/>
      <point x="434" y="2611"/>
    </contour>
  </outline>
</glyph>
<glyph name="three" format="2">
  <advance width="2359"/>
  <unicode hex="0033"/>
  <outline>
    <contour>
      <point x="584" y="2478" type="curve" smooth="yes"/>
      <point x="584" y="2813"/>
      <point x="979" y="3108"/>
      <point x="1479" y="3108" type="curve" smooth="yes"/>
      <point x="1933" y="3108"/>
      <point x="2400" y="2976"/>
      <point x="2400" y="2505" type="curve" smooth="yes"/>
      <point x="2400" y="2034"/>
      <point x="1900" y="1656"/>
      <point x="954" y="1656" type="curve"/>
      <point x="954" y="1678" type="line"/>
      <point x="1606" y="1678"/>
      <point x="1762" y="2310"/>
      <point x="1762" y="2605" type="curve" smooth="yes"/>
      <point x="1762" y="2925"/>
      <point x="1656" y="3070"/>
      <point x="1373" y="3070" type="curve" smooth="yes"/>
      <point x="1070" y="3070"/>
      <point x="747" y="2885"/>
      <point x="665" y="2656" type="curve"/>
      <point x="698" y="2709"/>
      <point x="805" y="2782"/>
      <point x="940" y="2782" type="curve" smooth="yes"/>
      <point x="1128" y="2782"/>
      <point x="1255" y="2639"/>
      <point x="1255" y="2454" type="curve" smooth="yes"/>
      <point x="1255" y="2249"/>
      <point x="1084" y="2121"/>
      <point x="920" y="2121" type="curve" smooth="yes"/>
      <point x="736" y="2121"/>
      <point x="584" y="2269"/>
    </contour>
    <contour>
      <point x="20" y="650" type="curve" smooth="yes"/>
      <point x="20" y="879"/>
      <point x="164" y="1028"/>
      <point x="369" y="1028" type="curve" smooth="yes"/>
      <point x="553" y="1028"/>
      <point x="693" y="885"/>
      <point x="693" y="696" type="curve" smooth="yes"/>
      <point x="693" y="503"/>
      <point x="536" y="368"/>
      <point x="356" y="368" type="curve" smooth="yes"/>
      <point x="209" y="368"/>
      <point x="103" y="452"/>
      <point x="70" y="528" type="curve"/>
      <point x="107" y="270"/>
      <point x="390" y="-8"/>
      <point x="861" y="-8" type="curve" smooth="yes"/>
      <point x="1349" y="-8"/>
      <point x="1536" y="626"/>
      <point x="1536" y="1044" type="curve" smooth="yes"/>
      <point x="1536" y="1364"/>
      <point x="1421" y="1650"/>
      <point x="954" y="1650" type="curve"/>
      <point x="954" y="1672" type="line"/>
      <point x="1818" y="1672"/>
      <point x="2175" y="1417"/>
      <point x="2175" y="946" type="curve" smooth="yes"/>
      <point x="2175" y="348"/>
      <point x="1524" y="-40"/>
      <point x="905" y="-40" type="curve" smooth="yes"/>
      <point x="303" y="-40"/>
      <point x="20" y="335"/>
    </contour>
  </outline>
</glyph>
<glyph name="four" format="2">
  <advance width="1320"/>
  <unicode hex="0034"/>
  <outline>
    <contour>
      <point x="1110" y="12" type="line"/>
      <point x="1110" y="0" type="line"/>
      <point x="460" y="0" type="line"/>
      <point x="460" y="12" type="line"/>
    </contour>
    <contour>
      <point x="1301" y="1500" type="line"/>
      <point x="940" y="0" type="line"/>
      <point x="630" y="0" type="line"/>
      <point x="947" y="1386" type="line"/>
      <point x="112" y="436" type="line"/>
      <point x="1260" y="436" type="line"/>
      <point x="1260" y="424" type="line"/>
      <point x="86" y="424" type="line"/>
      <point x="1035" y="1500" type="line"/>
    </contour>
  </outline>
</glyph>
<glyph name="five" format="2">
  <advance width="1126"/>
  <unicode hex="0035"/>
  <outline>
    <contour>
      <point x="1056" y="550" type="curve" smooth="yes"/>
      <point x="1056" y="210"/>
      <point x="694" y="-20"/>
      <point x="392" y="-20" type="curve" smooth="yes"/>
      <point x="148" y="-20"/>
      <point x="0" y="124"/>
      <point x="0" y="288" type="curve" smooth="yes"/>
      <point x="0" y="390"/>
      <point x="74" y="462"/>
      <point x="164" y="462" type="curve" smooth="yes"/>
      <point x="244" y="462"/>
      <point x="328" y="400"/>
      <point x="328" y="300" type="curve" smooth="yes"/>
      <point x="328" y="200"/>
      <point x="252" y="140"/>
      <point x="164" y="140" type="curve" smooth="yes"/>
      <point x="90" y="140"/>
      <point x="36" y="189"/>
      <point x="24" y="224" type="curve"/>
      <point x="52" y="101"/>
      <point x="180" y="-6"/>
      <point x="372" y="-6" type="curve" smooth="yes"/>
      <point x="630" y="-6"/>
      <point x="736" y="372"/>
      <point x="736" y="600" type="curve" smooth="yes"/>
      <point x="736" y="768"/>
      <point x="672" y="890"/>
      <point x="544" y="890" type="curve" smooth="yes"/>
      <point x="403" y="890"/>
      <point x="257" y="823"/>
      <point x="188" y="724" type="curve"/>
      <point x="176" y="724" type="line"/>
      <point x="248" y="838"/>
      <point x="418" y="910"/>
      <point x="600" y="910" type="curve" smooth="yes"/>
      <point x="862" y="910"/>
      <point x="1056" y="810"/>
    </contour>
    <contour>
      <point x="1146" y="1200" type="line"/>
      <point x="346" y="1200" type="line"/>
      <point x="181" y="724" type="line"/>
      <point x="170" y="724" type="line"/>
      <point x="434" y="1500" type="line"/>
      <point x="1200" y="1500" type="line"/>
      <point x="1225" y="1610" type="line"/>
      <point x="1237" y="1610" type="line"/>
    </contour>
  </outline>
</glyph>
<glyph name="six" format="2">
  <advance width="1219"/>
  <unicode hex="0036"/>
  <outline>
    <contour>
      <point x="860" y="690" type="curve" smooth="yes"/>
      <point x="860" y="848"/>
      <point x="831" y="940"/>
      <point x="748" y="940" type="curve" smooth="yes"/>
      <point x="499" y="940"/>
      <point x="403" y="461"/>
      <point x="403" y="250" type="curve"/>
      <point x="392" y="250" type="line"/>
      <point x="392" y="460"/>
      <point x="475" y="985"/>
      <point x="806" y="985" type="curve" smooth="yes"/>
      <point x="988" y="985"/>
      <point x="1180" y="880"/>
      <point x="1180" y="600" type="curve" smooth="yes"/>
      <point x="1180" y="260"/>
      <point x="850" y="-20"/>
      <point x="528" y="-20" type="curve" smooth="yes"/>
      <point x="286" y="-20"/>
      <point x="100" y="120"/>
      <point x="100" y="440" type="curve" smooth="yes"/>
      <point x="100" y="906"/>
      <point x="604" y="1520"/>
      <point x="1230" y="1520" type="curve"/>
      <point x="1230" y="1510" type="line"/>
      <point x="707" y="1510"/>
      <point x="406" y="819"/>
      <point x="406" y="334" type="curve"/>
      <point x="403" y="250" type="line"/>
      <point x="403" y="112"/>
      <point x="443" y="-8"/>
      <point x="538" y="-8" type="curve" smooth="yes"/>
      <point x="717" y="-8"/>
      <point x="860" y="462"/>
    </contour>
  </outline>
</glyph>
<glyph name="seven" format="2">
  <advance width="1112"/>
  <unicode hex="0037"/>
  <outline>
    <contour>
      <point x="284" y="172" type="curve" smooth="yes"/>
      <point x="284" y="348"/>
      <point x="535" y="554"/>
      <point x="708" y="762" type="curve" smooth="yes"/>
      <point x="819" y="895"/>
      <point x="926" y="1035"/>
      <point x="1050" y="1190" type="curve"/>
      <point x="275" y="1190" type="line"/>
      <point x="241" y="1040" type="line"/>
      <point x="229" y="1040" type="line"/>
      <point x="331" y="1500" type="line"/>
      <point x="1313" y="1500" type="line"/>
      <point x="1313" y="1500"/>
      <point x="965" y="1050"/>
      <point x="761" y="800" type="curve" smooth="yes"/>
      <point x="618" y="624"/>
      <point x="513" y="512"/>
      <point x="513" y="422" type="curve" smooth="yes"/>
      <point x="513" y="328"/>
      <point x="654" y="303"/>
      <point x="654" y="166" type="curve" smooth="yes"/>
      <point x="654" y="62"/>
      <point x="580" y="-20"/>
      <point x="462" y="-20" type="curve" smooth="yes"/>
      <point x="364" y="-20"/>
      <point x="284" y="44"/>
    </contour>
  </outline>
</glyph>
<glyph name="eight" format="2">
  <advance width="2498"/>
  <unicode hex="0038"/>
  <outline>
    <contour>
      <point x="1127" y="2007" type="curve" smooth="yes"/>
      <point x="1127" y="1815"/>
      <point x="1162" y="1581"/>
      <point x="1346" y="1581" type="curve" smooth="yes"/>
      <point x="1649" y="1581"/>
      <point x="1864" y="2203"/>
      <point x="1864" y="2621" type="curve" smooth="yes"/>
      <point x="1864" y="2793"/>
      <point x="1829" y="3088"/>
      <point x="1635" y="3088" type="curve" smooth="yes"/>
      <point x="1373" y="3088"/>
      <point x="1127" y="2425"/>
    </contour>
    <contour>
      <point x="492" y="2150" type="curve" smooth="yes"/>
      <point x="492" y="2642"/>
      <point x="1000" y="3112"/>
      <point x="1639" y="3112" type="curve" smooth="yes"/>
      <point x="2196" y="3112"/>
      <point x="2498" y="2766"/>
      <point x="2498" y="2438" type="curve" smooth="yes"/>
      <point x="2498" y="1926"/>
      <point x="1930" y="1562"/>
      <point x="1352" y="1562" type="curve" smooth="yes"/>
      <point x="856" y="1562"/>
      <point x="492" y="1822"/>
    </contour>
    <contour>
      <point x="737" y="492" type="curve" smooth="yes"/>
      <point x="737" y="218"/>
      <point x="824" y="-16"/>
      <point x="1045" y="-16" type="curve" smooth="yes"/>
      <point x="1389" y="-16"/>
      <point x="1618" y="647"/>
      <point x="1618" y="1065" type="curve" smooth="yes"/>
      <point x="1618" y="1339"/>
      <point x="1532" y="1556"/>
      <point x="1311" y="1556" type="curve" smooth="yes"/>
      <point x="967" y="1556"/>
      <point x="737" y="910"/>
    </contour>
    <contour>
      <point x="122" y="614" type="curve" smooth="yes"/>
      <point x="122" y="1106"/>
      <point x="508" y="1577"/>
      <point x="1270" y="1577" type="curve" smooth="yes"/>
      <point x="1909" y="1577"/>
      <point x="2253" y="1352"/>
      <point x="2253" y="942" type="curve" smooth="yes"/>
      <point x="2253" y="450"/>
      <point x="1868" y="-40"/>
      <point x="1106" y="-40" type="curve" smooth="yes"/>
      <point x="467" y="-40"/>
      <point x="122" y="204"/>
    </contour>
  </outline>
</glyph>
<glyph name="question" format="2">
  <advance width="1169"/>
  <unicode hex="003F"/>
  <outline>
    <contour>
      <point x="592" y="701" type="curve"/>
      <point x="545" y="488" type="line"/>
      <point x="533" y="488" type="line"/>
      <point x="581" y="710" type="line"/>
      <point x="815" y="772"/>
      <point x="948" y="1034"/>
      <point x="948" y="1260" type="curve" smooth="yes"/>
      <point x="948" y="1388"/>
      <point x="910" y="1506"/>
      <point x="772" y="1506" type="curve" smooth="yes"/>
      <point x="548" y="1506"/>
      <point x="373" y="1347"/>
      <point x="350" y="1225" type="curve"/>
      <point x="369" y="1261"/>
      <point x="418" y="1300"/>
      <point x="484" y="1300" type="curve" smooth="yes"/>
      <point x="562" y="1300"/>
      <point x="638" y="1240"/>
      <point x="638" y="1150" type="curve" smooth="yes"/>
      <point x="638" y="1050"/>
      <point x="554" y="988"/>
      <point x="474" y="988" type="curve" smooth="yes"/>
      <point x="374" y="988"/>
      <point x="320" y="1060"/>
      <point x="320" y="1162" type="curve" smooth="yes"/>
      <point x="320" y="1326"/>
      <point x="528" y="1520"/>
      <point x="792" y="1520" type="curve" smooth="yes"/>
      <point x="1014" y="1520"/>
      <point x="1260" y="1430"/>
      <point x="1260" y="1190" type="curve" smooth="yes"/>
      <point x="1260" y="872"/>
      <point x="902" y="717"/>
    </contour>
    <component base="period" xOffset="298"/>
  </outline>
</glyph>
<glyph name="at" format="2">
  <advance width="2019"/>
  <unicode hex="0040"/>
  <outline>
    <contour>
      <point x="1163" y="714" type="curve" smooth="yes"/>
      <point x="1163" y="406"/>
      <point x="1020" y="140"/>
      <point x="790" y="140" type="curve" smooth="yes"/>
      <point x="620" y="140"/>
      <point x="488" y="252"/>
      <point x="488" y="460" type="curve" smooth="yes"/>
      <point x="488" y="760"/>
      <point x="707" y="1058"/>
      <point x="951" y="1058" type="curve" smooth="yes"/>
      <point x="1131" y="1058"/>
      <point x="1163" y="878"/>
    </contour>
    <contour>
      <point x="1152" y="692" type="curve" smooth="yes"/>
      <point x="1152" y="776"/>
      <point x="1147" y="983"/>
      <point x="1043" y="983" type="curve" smooth="yes"/>
      <point x="936" y="983"/>
      <point x="810" y="712"/>
      <point x="810" y="464" type="curve" smooth="yes"/>
      <point x="810" y="330"/>
      <point x="840" y="216"/>
      <point x="912" y="216" type="curve" smooth="yes"/>
      <point x="1026" y="216"/>
      <point x="1152" y="444"/>
    </contour>
    <contour>
      <point x="1110" y="420" type="curve" smooth="yes"/>
      <point x="1254" y="1040" type="line"/>
      <point x="1554" y="1040" type="line"/>
      <point x="1407" y="408" type="line" smooth="yes"/>
      <point x="1393" y="346"/>
      <point x="1333" y="173"/>
      <point x="1455" y="173" type="curve" smooth="yes"/>
      <point x="1691" y="173"/>
      <point x="1898" y="464"/>
      <point x="1898" y="802" type="curve" smooth="yes"/>
      <point x="1898" y="1162"/>
      <point x="1668" y="1568"/>
      <point x="1168" y="1568" type="curve" smooth="yes"/>
      <point x="593" y="1568"/>
      <point x="122" y="1042"/>
      <point x="122" y="422" type="curve" smooth="yes"/>
      <point x="122" y="-198"/>
      <point x="480" y="-416"/>
      <point x="838" y="-416" type="curve" smooth="yes"/>
      <point x="1164" y="-416"/>
      <point x="1390" y="-316"/>
      <point x="1560" y="-120" type="curve"/>
      <point x="1570" y="-128" type="line"/>
      <point x="1402" y="-324"/>
      <point x="1164" y="-428"/>
      <point x="838" y="-428" type="curve" smooth="yes"/>
      <point x="472" y="-428"/>
      <point x="110" y="-206"/>
      <point x="110" y="422" type="curve" smooth="yes"/>
      <point x="110" y="1048"/>
      <point x="584" y="1580"/>
      <point x="1170" y="1580" type="curve" smooth="yes"/>
      <point x="1676" y="1580"/>
      <point x="1910" y="1168"/>
      <point x="1910" y="802" type="curve" smooth="yes"/>
      <point x="1910" y="472"/>
      <point x="1724" y="136"/>
      <point x="1352" y="136" type="curve" smooth="yes"/>
      <point x="1114" y="136"/>
      <point x="1082" y="296"/>
    </contour>
  </outline>
</glyph>
<glyph name="A" format="2">
  <advance width="1544"/>
  <unicode hex="0041"/>
  <outline>
    <contour>
      <point x="-95" y="12" type="line"/>
      <point x="345" y="12" type="line"/>
      <point x="345" y="0" type="line"/>
      <point x="-95" y="0" type="line"/>
    </contour>
    <contour>
      <point x="705" y="12" type="line"/>
      <point x="1405" y="12" type="line"/>
      <point x="1405" y="0" type="line"/>
      <point x="705" y="0" type="line"/>
    </contour>
    <contour>
      <point x="373" y="496" type="line"/>
      <point x="1025" y="496" type="line"/>
      <point x="1025" y="484" type="line"/>
      <point x="373" y="484" type="line"/>
    </contour>
    <contour>
      <point x="810" y="1234" type="line"/>
      <point x="97" y="0" type="line"/>
      <point x="83" y="0" type="line"/>
      <point x="965" y="1530" type="line"/>
      <point x="1075" y="1530" type="line"/>
      <point x="1265" y="0" type="line"/>
      <point x="935" y="0" type="line"/>
    </contour>
  </outline>
</glyph>
<glyph name="C" format="2">
  <advance width="1390"/>
  <unicode hex="0043"/>
  <outline>
    <contour>
      <point x="665" y="-20" type="curve" smooth="yes"/>
      <point x="329" y="-20"/>
      <point x="105" y="184"/>
      <point x="105" y="510" type="curve" smooth="yes"/>
      <point x="105" y="1056"/>
      <point x="509" y="1520"/>
      <point x="995" y="1520" type="curve" smooth="yes"/>
      <point x="1251" y="1520"/>
      <point x="1410" y="1346"/>
      <point x="1420" y="1060" type="curve"/>
      <point x="1408" y="1060" type="line"/>
      <point x="1391" y="1366"/>
      <point x="1215" y="1498"/>
      <point x="1045" y="1498" type="curve" smooth="yes"/>
      <point x="647" y="1498"/>
      <point x="435" y="784"/>
      <point x="435" y="370" type="curve" smooth="yes"/>
      <point x="435" y="176"/>
      <point x="495" y="0"/>
      <point x="703" y="0" type="curve" smooth="yes"/>
      <point x="941" y="0"/>
      <point x="1151" y="196"/>
      <point x="1283" y="440" type="curve"/>
      <point x="1295" y="440" type="line"/>
      <point x="1175" y="194"/>
      <point x="951" y="-20"/>
    </contour>
    <contour>
      <point x="1408" y="1060" type="line"/>
      <point x="1404" y="1139" type="line"/>
      <point x="1391" y="1220"/>
      <point x="1360" y="1308"/>
      <point x="1320" y="1359" type="curve"/>
      <point x="1511" y="1500" type="line"/>
      <point x="1521" y="1500" type="line"/>
      <point x="1420" y="1060" type="line"/>
    </contour>
    <contour>
      <point x="1283" y="440" type="line"/>
      <point x="1295" y="440" type="line"/>
      <point x="1185" y="0" type="line"/>
      <point x="1175" y="0" type="line"/>
      <point x="1054" y="135" type="line"/>
      <point x="1105" y="182"/>
      <point x="1189" y="265"/>
      <point x="1242" y="353" type="curve"/>
    </contour>
  </outline>
</glyph>
<glyph name="E" format="2">
  <advance width="1232"/>
  <unicode hex="0045"/>
  <outline>
    <contour>
      <point x="243" y="1500" type="line"/>
      <point x="1383" y="1500" type="line"/>
      <point x="1287" y="1090" type="line"/>
      <point x="1275" y="1090" type="line"/>
      <point x="1295" y="1304"/>
      <point x="1197" y="1488"/>
      <point x="963" y="1488" type="curve" smooth="yes"/>
      <point x="243" y="1488" type="line"/>
    </contour>
    <contour>
      <point x="423" y="1500" type="line"/>
      <point x="733" y="1500" type="line"/>
      <point x="385" y="0" type="line"/>
      <point x="75" y="0" type="line"/>
    </contour>
    <contour>
      <point x="641" y="770" type="curve" smooth="yes"/>
      <point x="509" y="770" type="line"/>
      <point x="509" y="782" type="line"/>
      <point x="641" y="782" type="line" smooth="yes"/>
      <point x="755" y="782"/>
      <point x="888" y="882"/>
      <point x="948" y="1016" type="curve"/>
      <point x="960" y="1016" type="line"/>
      <point x="847" y="526" type="line"/>
      <point x="835" y="526" type="line"/>
      <point x="835" y="660"/>
      <point x="755" y="770"/>
    </contour>
    <contour>
      <point x="1055" y="0" type="line"/>
      <point x="-95" y="0" type="line"/>
      <point x="-95" y="12" type="line"/>
      <point x="615" y="12" type="line" smooth="yes"/>
      <point x="889" y="12"/>
      <point x="1059" y="196"/>
      <point x="1147" y="450" type="curve"/>
      <point x="1159" y="450" type="line"/>
    </contour>
  </outline>
</glyph>
<glyph name="F" format="2">
  <advance width="1182"/>
  <unicode hex="0046"/>
  <outline>
    <contour>
      <point x="603" y="740" type="curve" smooth="yes"/>
      <point x="513" y="740" type="line"/>
      <point x="513" y="752" type="line"/>
      <point x="603" y="752" type="line" smooth="yes"/>
      <point x="755" y="752"/>
      <point x="885" y="852"/>
      <point x="941" y="986" type="curve"/>
      <point x="953" y="986" type="line"/>
      <point x="840" y="496" type="line"/>
      <point x="828" y="496" type="line"/>
      <point x="828" y="630"/>
      <point x="757" y="740"/>
    </contour>
    <contour>
      <point x="-95" y="12" type="line"/>
      <point x="585" y="12" type="line"/>
      <point x="585" y="0" type="line"/>
      <point x="-95" y="0" type="line"/>
    </contour>
    <contour>
      <point x="423" y="1500" type="line"/>
      <point x="733" y="1500" type="line"/>
      <point x="385" y="0" type="line"/>
      <point x="75" y="0" type="line"/>
    </contour>
    <contour>
      <point x="243" y="1500" type="line"/>
      <point x="1353" y="1500" type="line"/>
      <point x="1257" y="1090" type="line"/>
      <point x="1245" y="1090" type="line"/>
      <point x="1265" y="1304"/>
      <point x="1177" y="1488"/>
      <point x="943" y="1488" type="curve" smooth="yes"/>
      <point x="243" y="1488" type="line"/>
    </contour>
  </outline>
</glyph>
<glyph name="J" format="2">
  <advance width="1046"/>
  <unicode hex="004A"/>
  <outline>
    <contour>
      <point x="457" y="1500" type="line"/>
      <point x="1237" y="1500" type="line"/>
      <point x="1237" y="1488" type="line"/>
      <point x="457" y="1488" type="line"/>
    </contour>
    <contour>
      <point x="-33" y="146" type="curve"/>
      <point x="-17" y="54"/>
      <point x="82" y="-45"/>
      <point x="217" y="-45" type="curve" smooth="yes"/>
      <point x="339" y="-45"/>
      <point x="409" y="100"/>
      <point x="473" y="380" type="curve" smooth="yes"/>
      <point x="727" y="1500" type="line"/>
      <point x="1037" y="1500" type="line"/>
      <point x="775" y="338" type="line"/>
      <point x="645" y="148"/>
      <point x="489" y="-60"/>
      <point x="247" y="-60" type="curve" smooth="yes"/>
      <point x="53" y="-60"/>
      <point x="-65" y="70"/>
      <point x="-65" y="210" type="curve" smooth="yes"/>
      <point x="-65" y="314"/>
      <point x="9" y="400"/>
      <point x="119" y="400" type="curve" smooth="yes"/>
      <point x="209" y="400"/>
      <point x="291" y="334"/>
      <point x="291" y="222" type="curve" smooth="yes"/>
      <point x="291" y="114"/>
      <point x="205" y="46"/>
      <point x="113" y="46" type="curve" smooth="yes"/>
      <point x="49" y="46"/>
      <point x="-15" y="90"/>
    </contour>
  </outline>
</glyph>
<glyph name="K" format="2">
  <advance width="1518"/>
  <unicode hex="004B"/>
  <outline>
    <contour>
      <point x="-85" y="12" type="line"/>
      <point x="565" y="12" type="line"/>
      <point x="565" y="0" type="line"/>
      <point x="-85" y="0" type="line"/>
    </contour>
    <contour>
      <point x="245" y="1500" type="line"/>
      <point x="915" y="1500" type="line"/>
      <point x="915" y="1488" type="line"/>
      <point x="245" y="1488" type="line"/>
    </contour>
    <contour>
      <point x="425" y="1500" type="line"/>
      <point x="735" y="1500" type="line"/>
      <point x="395" y="0" type="line"/>
      <point x="85" y="0" type="line"/>
    </contour>
    <contour>
      <point x="310" y="434" type="line"/>
      <point x="288" y="434" type="line"/>
      <point x="1422" y="1497" type="line"/>
      <point x="1442" y="1497" type="line"/>
    </contour>
    <contour>
      <point x="679" y="12" type="line"/>
      <point x="1395" y="12" type="line"/>
      <point x="1395" y="0" type="line"/>
      <point x="679" y="0" type="line"/>
    </contour>
    <contour>
      <point x="1639" y="1488" type="line"/>
      <point x="1159" y="1488" type="line"/>
      <point x="1159" y="1500" type="line"/>
      <point x="1639" y="1500" type="line"/>
    </contour>
    <contour>
      <point x="1231" y="0" type="line"/>
      <point x="887" y="0" type="line"/>
      <point x="634" y="754" type="line"/>
      <point x="889" y="980" type="line"/>
    </contour>
  </outline>
</glyph>
<glyph name="M" format="2">
  <advance width="1784"/>
  <unicode hex="004D"/>
  <outline>
    <contour>
      <point x="1035" y="12" type="line"/>
      <point x="1645" y="12" type="line"/>
      <point x="1645" y="0" type="line"/>
      <point x="1035" y="0" type="line"/>
    </contour>
    <contour>
      <point x="1800" y="1488" type="line"/>
      <point x="1485" y="0" type="line"/>
      <point x="1175" y="0" type="line"/>
      <point x="1495" y="1500" type="line"/>
      <point x="1925" y="1500" type="line"/>
      <point x="1925" y="1488" type="line"/>
    </contour>
    <contour>
      <point x="887" y="426" type="line"/>
      <point x="1489" y="1500" type="line"/>
      <point x="1503" y="1500" type="line"/>
      <point x="653" y="-20" type="line"/>
      <point x="637" y="-20" type="line"/>
      <point x="401" y="1500" type="line"/>
      <point x="713" y="1500" type="line"/>
    </contour>
    <contour>
      <point x="397" y="1488" type="line"/>
      <point x="245" y="1488" type="line"/>
      <point x="245" y="1500" type="line"/>
      <point x="412" y="1500" type="line"/>
      <point x="93" y="0" type="line"/>
      <point x="80" y="0" type="line"/>
    </contour>
    <contour>
      <point x="-55" y="12" type="line"/>
      <point x="261" y="12" type="line"/>
      <point x="261" y="0" type="line"/>
      <point x="-55" y="0" type="line"/>
    </contour>
  </outline>
</glyph>
<glyph name="N" format="2">
  <advance width="1484"/>
  <unicode hex="004E"/>
  <outline>
    <contour>
      <point x="1457" y="1500" type="line"/>
      <point x="1469" y="1500" type="line"/>
      <point x="1123" y="-20" type="line"/>
      <point x="1095" y="-20" type="line"/>
      <point x="445" y="1500" type="line"/>
      <point x="815" y="1500" type="line"/>
      <point x="1233" y="516" type="line"/>
    </contour>
    <contour>
      <point x="1217" y="1500" type="line"/>
      <point x="1675" y="1500" type="line"/>
      <point x="1675" y="1488" type="line"/>
      <point x="1217" y="1488" type="line"/>
    </contour>
    <contour>
      <point x="-75" y="12" type="line"/>
      <point x="369" y="12" type="line"/>
      <point x="369" y="0" type="line"/>
      <point x="-75" y="0" type="line"/>
    </contour>
    <contour>
      <point x="447" y="1488" type="line"/>
      <point x="245" y="1488" type="line"/>
      <point x="245" y="1500" type="line"/>
      <point x="462" y="1500" type="line"/>
      <point x="125" y="0" type="line"/>
      <point x="115" y="0" type="line"/>
    </contour>
  </outline>
</glyph>
<glyph name="O" format="2">
  <advance width="1504"/>
  <unicode hex="004F"/>
  <outline>
    <contour>
      <point x="635" y="-20" type="curve" smooth="yes"/>
      <point x="299" y="-20"/>
      <point x="105" y="184"/>
      <point x="105" y="510" type="curve" smooth="yes"/>
      <point x="105" y="1096"/>
      <point x="549" y="1520"/>
      <point x="975" y="1520" type="curve" smooth="yes"/>
      <point x="1291" y="1520"/>
      <point x="1505" y="1316"/>
      <point x="1505" y="990" type="curve" smooth="yes"/>
      <point x="1505" y="404"/>
      <point x="1081" y="-20"/>
    </contour>
    <contour>
      <point x="975" y="1510" type="curve" smooth="yes"/>
      <point x="667" y="1510"/>
      <point x="425" y="794"/>
      <point x="425" y="330" type="curve" smooth="yes"/>
      <point x="425" y="118"/>
      <point x="477" y="-10"/>
      <point x="635" y="-10" type="curve" smooth="yes"/>
      <point x="963" y="-10"/>
      <point x="1185" y="706"/>
      <point x="1185" y="1170" type="curve" smooth="yes"/>
      <point x="1185" y="1342"/>
      <point x="1133" y="1510"/>
    </contour>
  </outline>
</glyph>
<glyph name="S" format="2">
  <advance width="2430"/>
  <unicode hex="0053"/>
  <outline>
    <contour>
      <point x="2331" y="2341" type="line"/>
      <point x="2294" y="2494"/>
      <point x="2225" y="2700"/>
      <point x="2110" y="2849" type="curve"/>
      <point x="2554" y="3112" type="line"/>
      <point x="2574" y="3112" type="line"/>
      <point x="2365" y="2192" type="line"/>
      <point x="2341" y="2192" type="line"/>
    </contour>
    <contour>
      <point x="2365" y="2192" type="curve"/>
      <point x="2341" y="2192" type="line"/>
      <point x="2280" y="2708"/>
      <point x="2031" y="3082"/>
      <point x="1550" y="3082" type="curve" smooth="yes"/>
      <point x="1259" y="3082"/>
      <point x="965" y="2885"/>
      <point x="965" y="2572" type="curve" smooth="yes"/>
      <point x="965" y="1884"/>
      <point x="2244" y="2069"/>
      <point x="2244" y="1024" type="curve" smooth="yes"/>
      <point x="2244" y="450"/>
      <point x="1706" y="-62"/>
      <point x="1046" y="-62" type="curve" smooth="yes"/>
      <point x="408" y="-62"/>
      <point x="194" y="429"/>
      <point x="125" y="921" type="curve"/>
      <point x="150" y="921" type="line"/>
      <point x="211" y="472"/>
      <point x="422" y="-30"/>
      <point x="1022" y="-30" type="curve" smooth="yes"/>
      <point x="1436" y="-30"/>
      <point x="1722" y="221"/>
      <point x="1722" y="582" type="curve" smooth="yes"/>
      <point x="1722" y="1393"/>
      <point x="453" y="1147"/>
      <point x="453" y="2110" type="curve" smooth="yes"/>
      <point x="453" y="2765"/>
      <point x="1072" y="3112"/>
      <point x="1526" y="3112" type="curve" smooth="yes"/>
      <point x="2050" y="3112"/>
      <point x="2304" y="2728"/>
    </contour>
    <contour>
      <point x="-72" y="-40" type="line"/>
      <point x="-92" y="-40" type="line"/>
      <point x="125" y="921" type="line"/>
      <point x="150" y="921" type="line"/>
      <point x="174" y="723" type="line"/>
      <point x="217" y="555"/>
      <point x="303" y="352"/>
      <point x="389" y="241" type="curve"/>
    </contour>
  </outline>
</glyph>
<glyph name="T" format="2">
  <advance width="2751"/>
  <unicode hex="0054"/>
  <outline>
    <contour>
      <point x="385" y="24" type="line"/>
      <point x="1921" y="24" type="line"/>
      <point x="1921" y="0" type="line"/>
      <point x="385" y="0" type="line"/>
    </contour>
    <contour>
      <point x="1524" y="3072" type="line"/>
      <point x="2159" y="3072" type="line"/>
      <point x="1446" y="0" type="line"/>
      <point x="811" y="0" type="line"/>
    </contour>
    <contour>
      <point x="2404" y="3048" type="curve" smooth="yes"/>
      <point x="1237" y="3048" type="line" smooth="yes"/>
      <point x="798" y="3048"/>
      <point x="502" y="2605"/>
      <point x="322" y="2089" type="curve"/>
      <point x="297" y="2089" type="line"/>
      <point x="520" y="3072" type="line"/>
      <point x="3162" y="3072" type="line"/>
      <point x="2939" y="2089" type="line"/>
      <point x="2914" y="2089" type="line"/>
      <point x="2971" y="2609"/>
      <point x="2843" y="3048"/>
    </contour>
  </outline>
</glyph>
<glyph name="U" format="2">
  <advance width="2909"/>
  <unicode hex="0055"/>
  <outline>
    <contour>
      <point x="2501" y="3072" type="line"/>
      <point x="3299" y="3072" type="line"/>
      <point x="3299" y="3048" type="line"/>
      <point x="2501" y="3048" type="line"/>
    </contour>
    <contour>
      <point x="494" y="3072" type="line"/>
      <point x="1907" y="3072" type="line"/>
      <point x="1907" y="3048" type="line"/>
      <point x="494" y="3048" type="line"/>
    </contour>
    <contour>
      <point x="2918" y="3072" type="line"/>
      <point x="2943" y="3072" type="line"/>
      <point x="2451" y="942" type="line" smooth="yes"/>
      <point x="2303" y="298"/>
      <point x="1961" y="-62"/>
      <point x="1313" y="-62" type="curve" smooth="yes"/>
      <point x="645" y="-62"/>
      <point x="235" y="270"/>
      <point x="391" y="942" type="curve" smooth="yes"/>
      <point x="883" y="3072" type="line"/>
      <point x="1517" y="3072" type="line"/>
      <point x="1026" y="984" type="line" smooth="yes"/>
      <point x="908" y="472"/>
      <point x="943" y="-4"/>
      <point x="1450" y="-4" type="curve" smooth="yes"/>
      <point x="1952" y="-4"/>
      <point x="2285" y="322"/>
      <point x="2427" y="942" type="curve" smooth="yes"/>
    </contour>
  </outline>
</glyph>
<glyph name="V" format="2">
  <advance width="3143"/>
  <unicode hex="0056"/>
  <outline>
    <contour>
      <point x="3553" y="3048" type="line"/>
      <point x="2652" y="3048" type="line"/>
      <point x="2652" y="3072" type="line"/>
      <point x="3553" y="3072" type="line"/>
    </contour>
    <contour>
      <point x="1915" y="3048" type="line"/>
      <point x="482" y="3048" type="line"/>
      <point x="482" y="3072" type="line"/>
      <point x="1915" y="3072" type="line"/>
    </contour>
    <contour>
      <point x="1700" y="566" type="line"/>
      <point x="3152" y="3072" type="line"/>
      <point x="3181" y="3072" type="line"/>
      <point x="1382" y="-37" type="line"/>
      <point x="1157" y="-37" type="line"/>
      <point x="768" y="3072" type="line"/>
      <point x="1444" y="3072" type="line"/>
    </contour>
  </outline>
</glyph>
<glyph name="W" format="2">
  <advance width="2190"/>
  <unicode hex="0057"/>
  <outline>
    <contour>
      <point x="888" y="337" type="line"/>
      <point x="1215" y="894" type="line"/>
      <point x="1228" y="894" type="line"/>
      <point x="692" y="-20" type="line"/>
      <point x="596" y="-20" type="line"/>
      <point x="399" y="1500" type="line"/>
      <point x="746" y="1500" type="line"/>
    </contour>
    <contour>
      <point x="1336" y="834" type="line"/>
      <point x="1324" y="834" type="line"/>
      <point x="1719" y="1500" type="line"/>
      <point x="1731" y="1500" type="line"/>
    </contour>
    <contour>
      <point x="2391" y="1488" type="line"/>
      <point x="2001" y="1488" type="line"/>
      <point x="2001" y="1500" type="line"/>
      <point x="2391" y="1500" type="line"/>
    </contour>
    <contour>
      <point x="1915" y="1488" type="line"/>
      <point x="235" y="1488" type="line"/>
      <point x="235" y="1500" type="line"/>
      <point x="1915" y="1500" type="line"/>
    </contour>
    <contour>
      <point x="1503" y="338" type="line"/>
      <point x="2192" y="1500" type="line"/>
      <point x="2205" y="1500" type="line"/>
      <point x="1304" y="-20" type="line"/>
      <point x="1238" y="-20" type="line"/>
      <point x="1041" y="1500" type="line"/>
      <point x="1356" y="1500" type="line"/>
    </contour>
  </outline>
</glyph>
<glyph name="X" format="2">
  <advance width="3183"/>
  <unicode hex="0058"/>
  <outline>
    <contour>
      <point x="1737" y="1544" type="line"/>
      <point x="1697" y="1544" type="line"/>
      <point x="2980" y="3064" type="line"/>
      <point x="3015" y="3064" type="line"/>
    </contour>
    <contour>
      <point x="240" y="0" type="line"/>
      <point x="203" y="0" type="line"/>
      <point x="1690" y="1708" type="line"/>
      <point x="1724" y="1708" type="line"/>
    </contour>
    <contour>
      <point x="1546" y="24" type="line"/>
      <point x="2939" y="24" type="line"/>
      <point x="2939" y="0" type="line"/>
      <point x="1546" y="0" type="line"/>
    </contour>
    <contour>
      <point x="-215" y="24" type="line"/>
      <point x="768" y="24" type="line"/>
      <point x="768" y="0" type="line"/>
      <point x="-215" y="0" type="line"/>
    </contour>
    <contour>
      <point x="2017" y="3048" type="line"/>
      <point x="624" y="3048" type="line"/>
      <point x="624" y="3072" type="line"/>
      <point x="2017" y="3072" type="line"/>
    </contour>
    <contour>
      <point x="3431" y="3048" type="line"/>
      <point x="2529" y="3048" type="line"/>
      <point x="2529" y="3072" type="line"/>
      <point x="3431" y="3072" type="line"/>
    </contour>
    <contour>
      <point x="2656" y="0" type="line"/>
      <point x="1940" y="0" type="line"/>
      <point x="912" y="3072" type="line"/>
      <point x="1612" y="3072" type="line"/>
    </contour>
  </outline>
</glyph>
<glyph name="Y" format="2">
  <advance width="3081"/>
  <unicode hex="0059"/>
  <outline>
    <contour>
      <point x="3492" y="3048" type="line"/>
      <point x="2632" y="3048" type="line"/>
      <point x="2632" y="3072" type="line"/>
      <point x="3492" y="3072" type="line"/>
    </contour>
    <contour>
      <point x="1903" y="3048" type="line"/>
      <point x="482" y="3048" type="line"/>
      <point x="482" y="3072" type="line"/>
      <point x="1903" y="3072" type="line"/>
    </contour>
    <contour>
      <point x="625" y="24" type="line"/>
      <point x="2038" y="24" type="line"/>
      <point x="2038" y="0" type="line"/>
      <point x="625" y="0" type="line"/>
    </contour>
    <contour>
      <point x="1970" y="1609" type="line"/>
      <point x="3121" y="3064" type="line"/>
      <point x="3153" y="3064" type="line"/>
      <point x="1972" y="1569" type="line"/>
      <point x="1628" y="0" type="line"/>
      <point x="993" y="0" type="line"/>
      <point x="1341" y="1544" type="line"/>
      <point x="768" y="3072" type="line"/>
      <point x="1472" y="3072" type="line"/>
    </contour>
  </outline>
</glyph>
<glyph name="grave" format="2">
  <advance width="809"/>
  <unicode hex="0060"/>
  <outline>
    <contour>
      <point x="508" y="1400" type="line" smooth="yes"/>
      <point x="440" y="1391"/>
      <point x="378" y="1442"/>
      <point x="378" y="1510" type="curve" smooth="yes"/>
      <point x="378" y="1578"/>
      <point x="450" y="1645"/>
      <point x="528" y="1616" type="curve" smooth="yes"/>
      <point x="973" y="1456" type="line"/>
      <point x="968" y="1444" type="line"/>
    </contour>
  </outline>
</glyph>
<glyph name="a" format="2">
  <advance width="1281"/>
  <unicode hex="0061"/>
  <outline>
    <contour>
      <point x="756" y="628" type="curve" smooth="yes"/>
      <point x="756" y="754"/>
      <point x="720" y="867"/>
      <point x="642" y="867" type="curve" smooth="yes"/>
      <point x="504" y="867"/>
      <point x="340" y="520"/>
      <point x="340" y="252" type="curve" smooth="yes"/>
      <point x="340" y="128"/>
      <point x="378" y="46"/>
      <point x="450" y="46" type="curve" smooth="yes"/>
      <point x="622" y="46"/>
      <point x="756" y="412"/>
    </contour>
    <contour>
      <point x="766" y="628" type="curve" smooth="yes"/>
      <point x="766" y="412"/>
      <point x="632" y="-20"/>
      <point x="350" y="-20" type="curve" smooth="yes"/>
      <point x="212" y="-20"/>
      <point x="32" y="60"/>
      <point x="32" y="320" type="curve" smooth="yes"/>
      <point x="32" y="720"/>
      <point x="346" y="939"/>
      <point x="554" y="939" type="curve" smooth="yes"/>
      <point x="706" y="939"/>
      <point x="766" y="812"/>
    </contour>
    <contour>
      <point x="1242" y="326" type="line"/>
      <point x="1166" y="126"/>
      <point x="1028" y="-20"/>
      <point x="836" y="-20" type="curve" smooth="yes"/>
      <point x="712" y="-20"/>
      <point x="665" y="35"/>
      <point x="665" y="136" type="curve" smooth="yes"/>
      <point x="665" y="146"/>
      <point x="668" y="173"/>
      <point x="671" y="188" type="curve" smooth="yes"/>
      <point x="714" y="361" type="line"/>
      <point x="751" y="500" type="line"/>
      <point x="761" y="597" type="line"/>
      <point x="845" y="920" type="line"/>
      <point x="1118" y="920" type="line"/>
      <point x="907" y="100" type="line" smooth="yes"/>
      <point x="905" y="88"/>
      <point x="903" y="74"/>
      <point x="903" y="64" type="curve" smooth="yes"/>
      <point x="903" y="42"/>
      <point x="914" y="24"/>
      <point x="940" y="24" type="curve" smooth="yes"/>
      <point x="1050" y="24"/>
      <point x="1172" y="169"/>
      <point x="1231" y="330" type="curve"/>
    </contour>
  </outline>
</glyph>
<glyph name="b" format="2">
  <advance width="2493"/>
  <unicode hex="0062"/>
  <outline>
    <contour>
      <point x="856" y="3048" type="line"/>
      <point x="540" y="3048" type="line"/>
      <point x="540" y="3072" type="line"/>
      <point x="1433" y="3072" type="line"/>
      <point x="836" y="471" type="line"/>
      <point x="836" y="229"/>
      <point x="890" y="-14"/>
      <point x="1058" y="-14" type="curve" smooth="yes"/>
      <point x="1382" y="-14"/>
      <point x="1740" y="820"/>
      <point x="1740" y="1368" type="curve" smooth="yes"/>
      <point x="1740" y="1590"/>
      <point x="1663" y="1784"/>
      <point x="1516" y="1784" type="curve" smooth="yes"/>
      <point x="1284" y="1784"/>
      <point x="1052" y="1425"/>
      <point x="942" y="942" type="curve"/>
      <point x="925" y="942" type="line"/>
      <point x="1083" y="1646"/>
      <point x="1397" y="1922"/>
      <point x="1729" y="1922" type="curve" smooth="yes"/>
      <point x="2003" y="1922"/>
      <point x="2371" y="1794"/>
      <point x="2371" y="1270" type="curve" smooth="yes"/>
      <point x="2371" y="410"/>
      <point x="1724" y="-40"/>
      <point x="1052" y="-40" type="curve" smooth="yes"/>
      <point x="720" y="-40"/>
      <point x="454" y="152"/>
      <point x="270" y="492" type="curve"/>
    </contour>
  </outline>
</glyph>
<glyph name="c" format="2">
  <advance width="989"/>
  <unicode hex="0063"/>
  <outline>
    <contour>
      <point x="930" y="748" type="curve"/>
      <point x="909" y="842"/>
      <point x="816" y="922"/>
      <point x="684" y="922" type="curve" smooth="yes"/>
      <point x="456" y="922"/>
      <point x="340" y="518"/>
      <point x="340" y="270" type="curve" smooth="yes"/>
      <point x="340" y="102"/>
      <point x="374" y="16"/>
      <point x="462" y="16" type="curve" smooth="yes"/>
      <point x="578" y="16"/>
      <point x="725" y="98"/>
      <point x="838" y="286" type="curve"/>
      <point x="850" y="286" type="line"/>
      <point x="738" y="92"/>
      <point x="572" y="-20"/>
      <point x="370" y="-20" type="curve" smooth="yes"/>
      <point x="208" y="-20"/>
      <point x="32" y="60"/>
      <point x="32" y="310" type="curve" smooth="yes"/>
      <point x="32" y="690"/>
      <point x="336" y="940"/>
      <point x="638" y="940" type="curve" smooth="yes"/>
      <point x="822" y="940"/>
      <point x="960" y="841"/>
      <point x="960" y="687" type="curve" smooth="yes"/>
      <point x="960" y="575"/>
      <point x="886" y="508"/>
      <point x="796" y="508" type="curve" smooth="yes"/>
      <point x="716" y="508"/>
      <point x="632" y="560"/>
      <point x="632" y="660" type="curve" smooth="yes"/>
      <point x="632" y="760"/>
      <point x="724" y="816"/>
      <point x="792" y="816" type="curve" smooth="yes"/>
      <point x="870" y="816"/>
      <point x="912" y="786"/>
    </contour>
  </outline>
</glyph>
<glyph name="d" format="2">
  <advance width="1301"/>
  <unicode hex="0064"/>
  <outline>
    <contour>
      <point x="1263" y="326" type="line"/>
      <point x="1187" y="126"/>
      <point x="1049" y="-20"/>
      <point x="857" y="-20" type="curve" smooth="yes"/>
      <point x="733" y="-20"/>
      <point x="669" y="26"/>
      <point x="669" y="146" type="curve" smooth="yes"/>
      <point x="669" y="156"/>
      <point x="672" y="178"/>
      <point x="674" y="190" type="curve" smooth="yes"/>
      <point x="715" y="364" type="line"/>
      <point x="751" y="506" type="line"/>
      <point x="761" y="594" type="line"/>
      <point x="967" y="1488" type="line"/>
      <point x="781" y="1488" type="line"/>
      <point x="781" y="1500" type="line"/>
      <point x="1247" y="1500" type="line"/>
      <point x="929" y="100" type="line" smooth="yes"/>
      <point x="927" y="88"/>
      <point x="925" y="74"/>
      <point x="925" y="64" type="curve" smooth="yes"/>
      <point x="925" y="42"/>
      <point x="934" y="23"/>
      <point x="961" y="23" type="curve" smooth="yes"/>
      <point x="1068" y="23"/>
      <point x="1194" y="167"/>
      <point x="1252" y="330" type="curve"/>
    </contour>
    <contour>
      <point x="756" y="628" type="curve" smooth="yes"/>
      <point x="756" y="754"/>
      <point x="720" y="867"/>
      <point x="642" y="867" type="curve" smooth="yes"/>
      <point x="504" y="867"/>
      <point x="340" y="520"/>
      <point x="340" y="252" type="curve" smooth="yes"/>
      <point x="340" y="128"/>
      <point x="378" y="46"/>
      <point x="450" y="46" type="curve" smooth="yes"/>
      <point x="622" y="46"/>
      <point x="756" y="412"/>
    </contour>
    <contour>
      <point x="766" y="628" type="curve" smooth="yes"/>
      <point x="766" y="412"/>
      <point x="632" y="-20"/>
      <point x="350" y="-20" type="curve" smooth="yes"/>
      <point x="212" y="-20"/>
      <point x="32" y="60"/>
      <point x="32" y="320" type="curve" smooth="yes"/>
      <point x="32" y="720"/>
      <point x="346" y="940"/>
      <point x="552" y="940" type="curve" smooth="yes"/>
      <point x="704" y="940"/>
      <point x="766" y="812"/>
    </contour>
  </outline>
</glyph>
<glyph name="e" format="2">
  <advance width="2088"/>
  <unicode hex="0065"/>
  <outline>
    <contour>
      <point x="697" y="473" type="curve" smooth="yes"/>
      <point x="697" y="231"/>
      <point x="766" y="18"/>
      <point x="967" y="18" type="curve" smooth="yes"/>
      <point x="1281" y="18"/>
      <point x="1616" y="283"/>
      <point x="1798" y="586" type="curve"/>
      <point x="1822" y="586" type="line"/>
      <point x="1642" y="270"/>
      <point x="1273" y="-40"/>
      <point x="819" y="-40" type="curve" smooth="yes"/>
      <point x="426" y="-40"/>
      <point x="66" y="143"/>
      <point x="66" y="635" type="curve" smooth="yes"/>
      <point x="66" y="1405"/>
      <point x="721" y="1926"/>
      <point x="1319" y="1926" type="curve" smooth="yes"/>
      <point x="1716" y="1926"/>
      <point x="2028" y="1797"/>
      <point x="2028" y="1503" type="curve" smooth="yes"/>
      <point x="2028" y="924"/>
      <point x="1093" y="863"/>
      <point x="639" y="863" type="curve"/>
      <point x="639" y="883" type="line"/>
      <point x="942" y="883"/>
      <point x="1491" y="1016"/>
      <point x="1491" y="1581" type="curve" smooth="yes"/>
      <point x="1491" y="1732"/>
      <point x="1463" y="1904"/>
      <point x="1348" y="1904" type="curve" smooth="yes"/>
      <point x="1066" y="1904"/>
      <point x="697" y="1104"/>
    </contour>
  </outline>
</glyph>
<glyph name="f" format="2">
  <advance width="831"/>
  <unicode hex="0066"/>
  <outline>
    <contour>
      <point x="140" y="920" type="line"/>
      <point x="870" y="920" type="line"/>
      <point x="870" y="908" type="line"/>
      <point x="140" y="908" type="line"/>
    </contour>
    <contour>
      <point x="1115" y="1361" type="curve"/>
      <point x="1095" y="1429"/>
      <point x="1008" y="1506"/>
      <point x="885" y="1506" type="curve" smooth="yes"/>
      <point x="745" y="1506"/>
      <point x="653" y="1324"/>
      <point x="610" y="1080" type="curve" smooth="yes"/>
      <point x="413" y="-24" type="line" smooth="yes"/>
      <point x="356" y="-343"/>
      <point x="138" y="-520"/>
      <point x="-122" y="-520" type="curve" smooth="yes"/>
      <point x="-314" y="-520"/>
      <point x="-412" y="-396"/>
      <point x="-412" y="-292" type="curve" smooth="yes"/>
      <point x="-412" y="-190"/>
      <point x="-349" y="-128"/>
      <point x="-259" y="-128" type="curve" smooth="yes"/>
      <point x="-179" y="-128"/>
      <point x="-96" y="-176"/>
      <point x="-96" y="-276" type="curve" smooth="yes"/>
      <point x="-96" y="-376"/>
      <point x="-170" y="-431"/>
      <point x="-256" y="-431" type="curve" smooth="yes"/>
      <point x="-311" y="-431"/>
      <point x="-359" y="-400"/>
      <point x="-375" y="-361" type="curve"/>
      <point x="-355" y="-429"/>
      <point x="-268" y="-506"/>
      <point x="-145" y="-506" type="curve" smooth="yes"/>
      <point x="-5" y="-506"/>
      <point x="88" y="-324"/>
      <point x="130" y="-80" type="curve" smooth="yes"/>
      <point x="326" y="1024" type="line" smooth="yes"/>
      <point x="382" y="1344"/>
      <point x="602" y="1520"/>
      <point x="862" y="1520" type="curve" smooth="yes"/>
      <point x="1054" y="1520"/>
      <point x="1152" y="1396"/>
      <point x="1152" y="1292" type="curve" smooth="yes"/>
      <point x="1152" y="1190"/>
      <point x="1089" y="1128"/>
      <point x="999" y="1128" type="curve" smooth="yes"/>
      <point x="919" y="1128"/>
      <point x="836" y="1176"/>
      <point x="836" y="1276" type="curve" smooth="yes"/>
      <point x="836" y="1376"/>
      <point x="910" y="1431"/>
      <point x="996" y="1431" type="curve" smooth="yes"/>
      <point x="1051" y="1431"/>
      <point x="1099" y="1399"/>
    </contour>
  </outline>
</glyph>
<glyph name="g" format="2">
  <advance width="1263"/>
  <unicode hex="0067"/>
  <outline>
    <contour>
      <point x="286" y="-55" type="line"/>
      <point x="216" y="-77"/>
      <point x="155" y="-168"/>
      <point x="155" y="-282" type="curve" smooth="yes"/>
      <point x="155" y="-410"/>
      <point x="220" y="-507"/>
      <point x="392" y="-507" type="curve" smooth="yes"/>
      <point x="570" y="-507"/>
      <point x="836" y="-424"/>
      <point x="836" y="-214" type="curve" smooth="yes"/>
      <point x="836" y="-106"/>
      <point x="772" y="-68"/>
      <point x="662" y="-68" type="curve" smooth="yes"/>
      <point x="620" y="-68"/>
      <point x="441" y="-68"/>
      <point x="397" y="-68" type="curve" smooth="yes"/>
      <point x="217" y="-68"/>
      <point x="71" y="-16"/>
      <point x="71" y="108" type="curve" smooth="yes"/>
      <point x="71" y="270"/>
      <point x="320" y="330"/>
      <point x="490" y="330" type="curve"/>
      <point x="490" y="324" type="line"/>
      <point x="424" y="324"/>
      <point x="262" y="305"/>
      <point x="262" y="229" type="curve" smooth="yes"/>
      <point x="262" y="185"/>
      <point x="349" y="168"/>
      <point x="459" y="168" type="curve" smooth="yes"/>
      <point x="529" y="168"/>
      <point x="615" y="170"/>
      <point x="671" y="170" type="curve" smooth="yes"/>
      <point x="851" y="170"/>
      <point x="942" y="88"/>
      <point x="942" y="-84" type="curve" smooth="yes"/>
      <point x="942" y="-366"/>
      <point x="655" y="-520"/>
      <point x="385" y="-520" type="curve" smooth="yes"/>
      <point x="149" y="-520"/>
      <point x="-88" y="-468"/>
      <point x="-88" y="-306" type="curve" smooth="yes"/>
      <point x="-88" y="-114"/>
      <point x="183" y="-55"/>
      <point x="273" y="-55" type="curve" smooth="yes"/>
    </contour>
    <contour>
      <point x="1304" y="766" type="curve" smooth="yes"/>
      <point x="1304" y="656"/>
      <point x="1237" y="618"/>
      <point x="1177" y="618" type="curve" smooth="yes"/>
      <point x="1117" y="618"/>
      <point x="1052" y="657"/>
      <point x="1052" y="743" type="curve" smooth="yes"/>
      <point x="1052" y="809"/>
      <point x="1109" y="862"/>
      <point x="1180" y="862" type="curve" smooth="yes"/>
      <point x="1238" y="862"/>
      <point x="1281" y="820"/>
      <point x="1288" y="785" type="curve"/>
      <point x="1277" y="876"/>
      <point x="1213" y="918"/>
      <point x="1131" y="918" type="curve" smooth="yes"/>
      <point x="1041" y="918"/>
      <point x="926" y="854"/>
      <point x="835" y="688" type="curve"/>
      <point x="826" y="694" type="line"/>
      <point x="916" y="866"/>
      <point x="1041" y="930"/>
      <point x="1131" y="930" type="curve" smooth="yes"/>
      <point x="1249" y="930"/>
      <point x="1304" y="849"/>
    </contour>
    <contour>
      <point x="488" y="332" type="curve" smooth="yes"/>
      <point x="606" y="332"/>
      <point x="696" y="612"/>
      <point x="696" y="780" type="curve" smooth="yes"/>
      <point x="696" y="848"/>
      <point x="676" y="928"/>
      <point x="618" y="928" type="curve" smooth="yes"/>
      <point x="500" y="928"/>
      <point x="410" y="648"/>
      <point x="410" y="480" type="curve" smooth="yes"/>
      <point x="410" y="412"/>
      <point x="430" y="332"/>
    </contour>
    <contour>
      <point x="483" y="320" type="curve" smooth="yes"/>
      <point x="291" y="320"/>
      <point x="137" y="390"/>
      <point x="137" y="570" type="curve" smooth="yes"/>
      <point x="137" y="790"/>
      <point x="371" y="940"/>
      <point x="623" y="940" type="curve" smooth="yes"/>
      <point x="815" y="940"/>
      <point x="969" y="870"/>
      <point x="969" y="690" type="curve" smooth="yes"/>
      <point x="969" y="470"/>
      <point x="735" y="320"/>
    </contour>
  </outline>
</glyph>
<glyph name="h" format="2">
  <advance width="1241"/>
  <unicode hex="0068"/>
  <outline>
    <contour>
      <point x="756" y="613" type="line" smooth="yes"/>
      <point x="808" y="766"/>
      <point x="823" y="906"/>
      <point x="751" y="906" type="curve" smooth="yes"/>
      <point x="609" y="906"/>
      <point x="470" y="652"/>
      <point x="397" y="346" type="curve"/>
      <point x="387" y="346" type="line"/>
      <point x="467" y="655"/>
      <point x="582" y="940"/>
      <point x="818" y="940" type="curve" smooth="yes"/>
      <point x="1022" y="940"/>
      <point x="1106" y="803"/>
      <point x="1044" y="616" type="curve" smooth="yes"/>
      <point x="868" y="86" type="line" smooth="yes"/>
      <point x="864" y="74"/>
      <point x="862" y="60"/>
      <point x="862" y="50" type="curve" smooth="yes"/>
      <point x="862" y="28"/>
      <point x="874" y="14"/>
      <point x="900" y="14" type="curve" smooth="yes"/>
      <point x="1011" y="14"/>
      <point x="1126" y="150"/>
      <point x="1191" y="329" type="curve"/>
      <point x="1202" y="326" type="line"/>
      <point x="1126" y="126"/>
      <point x="1008" y="-20"/>
      <point x="816" y="-20" type="curve" smooth="yes"/>
      <point x="682" y="-20"/>
      <point x="610" y="36"/>
      <point x="610" y="142" type="curve" smooth="yes"/>
      <point x="610" y="172"/>
      <point x="615" y="196"/>
      <point x="620" y="214" type="curve" smooth="yes"/>
    </contour>
    <contour>
      <point x="385" y="1488" type="line"/>
      <point x="247" y="1488" type="line"/>
      <point x="247" y="1500" type="line"/>
      <point x="667" y="1500" type="line"/>
      <point x="317" y="0" type="line"/>
      <point x="37" y="0" type="line"/>
    </contour>
  </outline>
</glyph>
<glyph name="i" format="2">
  <advance width="741"/>
  <unicode hex="0069"/>
  <outline>
    <contour>
      <point x="299" y="1350" type="curve" smooth="yes"/>
      <point x="299" y="1446"/>
      <point x="373" y="1520"/>
      <point x="469" y="1520" type="curve" smooth="yes"/>
      <point x="565" y="1520"/>
      <point x="639" y="1446"/>
      <point x="639" y="1350" type="curve" smooth="yes"/>
      <point x="639" y="1254"/>
      <point x="565" y="1180"/>
      <point x="469" y="1180" type="curve" smooth="yes"/>
      <point x="373" y="1180"/>
      <point x="299" y="1254"/>
    </contour>
    <contour>
      <point x="695" y="326" type="line"/>
      <point x="619" y="126"/>
      <point x="481" y="-20"/>
      <point x="289" y="-20" type="curve" smooth="yes"/>
      <point x="165" y="-20"/>
      <point x="102" y="26"/>
      <point x="102" y="146" type="curve" smooth="yes"/>
      <point x="102" y="156"/>
      <point x="103" y="178"/>
      <point x="106" y="190" type="curve" smooth="yes"/>
      <point x="279" y="908" type="line"/>
      <point x="127" y="908" type="line"/>
      <point x="127" y="920" type="line"/>
      <point x="561" y="920" type="line"/>
      <point x="362" y="100" type="line" smooth="yes"/>
      <point x="360" y="88"/>
      <point x="358" y="74"/>
      <point x="358" y="64" type="curve" smooth="yes"/>
      <point x="358" y="42"/>
      <point x="368" y="23"/>
      <point x="394" y="23" type="curve" smooth="yes"/>
      <point x="497" y="23"/>
      <point x="620" y="154"/>
      <point x="685" y="330" type="curve"/>
    </contour>
  </outline>
</glyph>
<glyph name="j" format="2">
  <advance width="600"/>
  <unicode hex="006A"/>
  <outline>
    <contour>
      <point x="311" y="1350" type="curve" smooth="yes"/>
      <point x="311" y="1446"/>
      <point x="385" y="1520"/>
      <point x="481" y="1520" type="curve" smooth="yes"/>
      <point x="577" y="1520"/>
      <point x="651" y="1446"/>
      <point x="651" y="1350" type="curve" smooth="yes"/>
      <point x="651" y="1254"/>
      <point x="577" y="1180"/>
      <point x="481" y="1180" type="curve" smooth="yes"/>
      <point x="385" y="1180"/>
      <point x="311" y="1254"/>
    </contour>
    <contour>
      <point x="-368" y="-355" type="curve"/>
      <point x="-345" y="-430"/>
      <point x="-253" y="-506"/>
      <point x="-142" y="-506" type="curve" smooth="yes"/>
      <point x="48" y="-506"/>
      <point x="36" y="-200"/>
      <point x="92" y="40" type="curve" smooth="yes"/>
      <point x="296" y="908" type="line"/>
      <point x="108" y="908" type="line"/>
      <point x="108" y="920" type="line"/>
      <point x="573" y="920" type="line"/>
      <point x="377" y="-24" type="line" smooth="yes"/>
      <point x="325" y="-274"/>
      <point x="128" y="-520"/>
      <point x="-132" y="-520" type="curve" smooth="yes"/>
      <point x="-294" y="-520"/>
      <point x="-408" y="-396"/>
      <point x="-408" y="-292" type="curve" smooth="yes"/>
      <point x="-408" y="-190"/>
      <point x="-324" y="-118"/>
      <point x="-234" y="-118" type="curve" smooth="yes"/>
      <point x="-154" y="-118"/>
      <point x="-82" y="-176"/>
      <point x="-82" y="-260" type="curve" smooth="yes"/>
      <point x="-82" y="-354"/>
      <point x="-161" y="-419"/>
      <point x="-253" y="-419" type="curve" smooth="yes"/>
      <point x="-309" y="-419"/>
      <point x="-347" y="-389"/>
    </contour>
  </outline>
</glyph>
<glyph name="k" format="2">
  <advance width="1230"/>
  <unicode hex="006B"/>
  <outline>
    <contour>
      <point x="1186" y="326" type="line"/>
      <point x="1110" y="126"/>
      <point x="982" y="-20"/>
      <point x="800" y="-20" type="curve" smooth="yes"/>
      <point x="676" y="-20"/>
      <point x="599" y="26"/>
      <point x="599" y="146" type="curve" smooth="yes"/>
      <point x="599" y="156"/>
      <point x="601" y="178"/>
      <point x="603" y="190" type="curve" smooth="yes"/>
      <point x="622" y="280" type="line" smooth="yes"/>
      <point x="647" y="396"/>
      <point x="718" y="556"/>
      <point x="612" y="556" type="curve" smooth="yes"/>
      <point x="512" y="556"/>
      <point x="478" y="456"/>
      <point x="460" y="380" type="curve"/>
      <point x="450" y="380" type="line"/>
      <point x="491" y="551"/>
      <point x="562" y="583"/>
      <point x="674" y="583" type="curve" smooth="yes"/>
      <point x="812" y="583"/>
      <point x="946" y="502"/>
      <point x="886" y="242" type="curve" smooth="yes"/>
      <point x="849" y="68" type="line" smooth="yes"/>
      <point x="849" y="64"/>
      <point x="847" y="54"/>
      <point x="847" y="50" type="curve" smooth="yes"/>
      <point x="847" y="28"/>
      <point x="861" y="18"/>
      <point x="887" y="18" type="curve" smooth="yes"/>
      <point x="996" y="18"/>
      <point x="1115" y="163"/>
      <point x="1176" y="330" type="curve"/>
    </contour>
    <contour>
      <point x="502" y="498" type="curve"/>
      <point x="507" y="508" type="line"/>
      <point x="516" y="502"/>
      <point x="528" y="496"/>
      <point x="553" y="496" type="curve" smooth="yes"/>
      <point x="632" y="496"/>
      <point x="673" y="595"/>
      <point x="725" y="723" type="curve" smooth="yes"/>
      <point x="781" y="859"/>
      <point x="864" y="940"/>
      <point x="974" y="940" type="curve" smooth="yes"/>
      <point x="1084" y="940"/>
      <point x="1181" y="862"/>
      <point x="1181" y="738" type="curve" smooth="yes"/>
      <point x="1181" y="638"/>
      <point x="1114" y="578"/>
      <point x="1034" y="578" type="curve" smooth="yes"/>
      <point x="954" y="578"/>
      <point x="894" y="642"/>
      <point x="894" y="718" type="curve" smooth="yes"/>
      <point x="894" y="794"/>
      <point x="958" y="852"/>
      <point x="1034" y="852" type="curve" smooth="yes"/>
      <point x="1098" y="852"/>
      <point x="1144" y="815"/>
      <point x="1159" y="772" type="curve"/>
      <point x="1147" y="863"/>
      <point x="1071" y="928"/>
      <point x="974" y="928" type="curve" smooth="yes"/>
      <point x="874" y="928"/>
      <point x="793" y="855"/>
      <point x="737" y="716" type="curve" smooth="yes"/>
      <point x="683" y="580"/>
      <point x="639" y="484"/>
      <point x="553" y="484" type="curve" smooth="yes"/>
      <point x="526" y="484"/>
      <point x="506" y="493"/>
    </contour>
    <contour>
      <point x="438" y="1488" type="line"/>
      <point x="260" y="1488" type="line"/>
      <point x="260" y="1500" type="line"/>
      <point x="720" y="1500" type="line"/>
      <point x="372" y="0" type="line"/>
      <point x="92" y="0" type="line"/>
    </contour>
  </outline>
</glyph>
<glyph name="l" format="2">
  <advance width="1463"/>
  <unicode hex="006C"/>
  <outline>
    <contour>
      <point x="1382" y="668" type="line"/>
      <point x="1226" y="258"/>
      <point x="944" y="-40"/>
      <point x="551" y="-40" type="curve" smooth="yes"/>
      <point x="297" y="-40"/>
      <point x="168" y="54"/>
      <point x="168" y="299" type="curve" smooth="yes"/>
      <point x="168" y="319"/>
      <point x="172" y="365"/>
      <point x="176" y="389" type="curve" smooth="yes"/>
      <point x="788" y="3048" type="line"/>
      <point x="408" y="3048" type="line"/>
      <point x="408" y="3072" type="line"/>
      <point x="1362" y="3072" type="line"/>
      <point x="701" y="205" type="line" smooth="yes"/>
      <point x="697" y="181"/>
      <point x="693" y="151"/>
      <point x="693" y="131" type="curve" smooth="yes"/>
      <point x="693" y="85"/>
      <point x="712" y="47"/>
      <point x="766" y="47" type="curve" smooth="yes"/>
      <point x="977" y="47"/>
      <point x="1233" y="326"/>
      <point x="1362" y="676" type="curve"/>
    </contour>
  </outline>
</glyph>
<glyph name="m" format="2">
  <advance width="1801"/>
  <unicode hex="006D"/>
  <outline>
    <contour>
      <point x="1316" y="613" type="line" smooth="yes"/>
      <point x="1368" y="766"/>
      <point x="1382" y="898"/>
      <point x="1310" y="898" type="curve" smooth="yes"/>
      <point x="1182" y="898"/>
      <point x="1043" y="673"/>
      <point x="966" y="346" type="curve"/>
      <point x="956" y="346" type="line"/>
      <point x="1032" y="648"/>
      <point x="1153" y="940"/>
      <point x="1384" y="940" type="curve" smooth="yes"/>
      <point x="1588" y="940"/>
      <point x="1666" y="803"/>
      <point x="1604" y="616" type="curve" smooth="yes"/>
      <point x="1428" y="86" type="line" smooth="yes"/>
      <point x="1424" y="74"/>
      <point x="1422" y="60"/>
      <point x="1422" y="50" type="curve" smooth="yes"/>
      <point x="1422" y="28"/>
      <point x="1434" y="13"/>
      <point x="1460" y="13" type="curve" smooth="yes"/>
      <point x="1572" y="13"/>
      <point x="1687" y="152"/>
      <point x="1752" y="330" type="curve"/>
      <point x="1762" y="326" type="line"/>
      <point x="1686" y="126"/>
      <point x="1568" y="-20"/>
      <point x="1376" y="-20" type="curve" smooth="yes"/>
      <point x="1242" y="-20"/>
      <point x="1170" y="36"/>
      <point x="1170" y="142" type="curve" smooth="yes"/>
      <point x="1170" y="172"/>
      <point x="1175" y="196"/>
      <point x="1180" y="214" type="curve" smooth="yes"/>
    </contour>
    <contour>
      <point x="882" y="0" type="line"/>
      <point x="602" y="0" type="line"/>
      <point x="752" y="616" type="line" smooth="yes"/>
      <point x="790" y="774"/>
      <point x="820" y="898"/>
      <point x="748" y="898" type="curve" smooth="yes"/>
      <point x="614" y="898"/>
      <point x="475" y="658"/>
      <point x="404" y="346" type="curve"/>
      <point x="394" y="346" type="line"/>
      <point x="470" y="649"/>
      <point x="587" y="940"/>
      <point x="823" y="940" type="curve" smooth="yes"/>
      <point x="1027" y="940"/>
      <point x="1082" y="817"/>
      <point x="1038" y="638" type="curve" smooth="yes"/>
    </contour>
    <contour>
      <point x="260" y="908" type="line"/>
      <point x="122" y="908" type="line"/>
      <point x="122" y="920" type="line"/>
      <point x="542" y="920" type="line"/>
      <point x="322" y="0" type="line"/>
      <point x="42" y="0" type="line"/>
    </contour>
  </outline>
</glyph>
<glyph name="n" format="2">
  <advance width="2563"/>
  <unicode hex="006E"/>
  <outline>
    <contour>
      <point x="524" y="1860" type="line"/>
      <point x="244" y="1860" type="line"/>
      <point x="244" y="1884" type="line"/>
      <point x="1104" y="1884" type="line"/>
      <point x="651" y="0" type="line"/>
      <point x="78" y="0" type="line"/>
    </contour>
    <contour>
      <point x="1552" y="1256" type="line" smooth="yes"/>
      <point x="1658" y="1570"/>
      <point x="1689" y="1856"/>
      <point x="1542" y="1856" type="curve" smooth="yes"/>
      <point x="1251" y="1856"/>
      <point x="971" y="1334"/>
      <point x="819" y="708" type="curve"/>
      <point x="799" y="708" type="line"/>
      <point x="965" y="1341"/>
      <point x="1196" y="1926"/>
      <point x="1679" y="1926" type="curve" smooth="yes"/>
      <point x="2097" y="1926"/>
      <point x="2270" y="1644"/>
      <point x="2143" y="1261" type="curve" smooth="yes"/>
      <point x="1781" y="176" type="line" smooth="yes"/>
      <point x="1773" y="152"/>
      <point x="1769" y="122"/>
      <point x="1769" y="102" type="curve" smooth="yes"/>
      <point x="1769" y="56"/>
      <point x="1793" y="29"/>
      <point x="1847" y="29" type="curve" smooth="yes"/>
      <point x="2074" y="29"/>
      <point x="2317" y="308"/>
      <point x="2451" y="674" type="curve"/>
      <point x="2474" y="668" type="line"/>
      <point x="2318" y="258"/>
      <point x="2068" y="-40"/>
      <point x="1675" y="-40" type="curve" smooth="yes"/>
      <point x="1401" y="-40"/>
      <point x="1253" y="74"/>
      <point x="1253" y="291" type="curve" smooth="yes"/>
      <point x="1253" y="353"/>
      <point x="1262" y="399"/>
      <point x="1274" y="438" type="curve" smooth="yes"/>
    </contour>
  </outline>
</glyph>
<glyph name="o" format="2">
  <advance width="1105"/>
  <unicode hex="006F"/>
  <outline>
    <contour>
      <point x="430" y="-20" type="curve" smooth="yes"/>
      <point x="238" y="-20"/>
      <point x="32" y="80"/>
      <point x="32" y="330" type="curve" smooth="yes"/>
      <point x="32" y="710"/>
      <point x="336" y="940"/>
      <point x="648" y="940" type="curve" smooth="yes"/>
      <point x="840" y="940"/>
      <point x="1046" y="840"/>
      <point x="1046" y="590" type="curve" smooth="yes"/>
      <point x="1046" y="210"/>
      <point x="742" y="-20"/>
    </contour>
    <contour>
      <point x="430" y="-7" type="curve" smooth="yes"/>
      <point x="628" y="-7"/>
      <point x="758" y="462"/>
      <point x="758" y="710" type="curve" smooth="yes"/>
      <point x="758" y="846"/>
      <point x="726" y="927"/>
      <point x="648" y="927" type="curve" smooth="yes"/>
      <point x="450" y="927"/>
      <point x="320" y="458"/>
      <point x="320" y="210" type="curve" smooth="yes"/>
      <point x="320" y="74"/>
      <point x="352" y="-7"/>
    </contour>
  </outline>
</glyph>
<glyph name="p" format="2">
  <advance width="1201"/>
  <unicode hex="0070"/>
  <outline>
    <contour>
      <point x="426" y="290" type="curve" smooth="yes"/>
      <point x="426" y="164"/>
      <point x="462" y="52"/>
      <point x="540" y="52" type="curve" smooth="yes"/>
      <point x="678" y="52"/>
      <point x="844" y="398"/>
      <point x="844" y="666" type="curve" smooth="yes"/>
      <point x="844" y="790"/>
      <point x="804" y="873"/>
      <point x="732" y="873" type="curve" smooth="yes"/>
      <point x="560" y="873"/>
      <point x="426" y="506"/>
    </contour>
    <contour>
      <point x="416" y="290" type="curve" smooth="yes"/>
      <point x="416" y="506"/>
      <point x="550" y="939"/>
      <point x="832" y="939" type="curve" smooth="yes"/>
      <point x="970" y="939"/>
      <point x="1152" y="858"/>
      <point x="1152" y="598" type="curve" smooth="yes"/>
      <point x="1152" y="198"/>
      <point x="836" y="-20"/>
      <point x="630" y="-20" type="curve" smooth="yes"/>
      <point x="478" y="-20"/>
      <point x="416" y="106"/>
    </contour>
    <contour>
      <point x="-188" y="-488" type="line"/>
      <point x="362" y="-488" type="line"/>
      <point x="362" y="-500" type="line"/>
      <point x="-188" y="-500" type="line"/>
    </contour>
    <contour>
      <point x="268" y="908" type="line"/>
      <point x="126" y="908" type="line"/>
      <point x="126" y="920" type="line"/>
      <point x="550" y="920" type="line"/>
      <point x="466" y="564" type="line"/>
      <point x="437" y="452" type="line"/>
      <point x="425" y="369" type="line"/>
      <point x="222" y="-500" type="line"/>
      <point x="-58" y="-500" type="line"/>
    </contour>
  </outline>
</glyph>
<glyph name="q" format="2">
  <advance width="1171"/>
  <unicode hex="0071"/>
  <outline>
    <contour>
      <point x="910" y="-488" type="line"/>
      <point x="910" y="-500" type="line"/>
      <point x="380" y="-500" type="line"/>
      <point x="380" y="-488" type="line"/>
    </contour>
    <contour>
      <point x="770" y="-500" type="line"/>
      <point x="510" y="-500" type="line"/>
      <point x="707" y="340" type="line"/>
      <point x="723" y="385"/>
      <point x="739" y="454"/>
      <point x="751" y="507" type="curve"/>
      <point x="761" y="597" type="line"/>
      <point x="834" y="900" type="line"/>
      <point x="1102" y="940" type="line"/>
    </contour>
    <contour>
      <point x="756" y="628" type="curve" smooth="yes"/>
      <point x="756" y="754"/>
      <point x="720" y="867"/>
      <point x="642" y="867" type="curve" smooth="yes"/>
      <point x="504" y="867"/>
      <point x="340" y="520"/>
      <point x="340" y="252" type="curve" smooth="yes"/>
      <point x="340" y="128"/>
      <point x="378" y="46"/>
      <point x="450" y="46" type="curve" smooth="yes"/>
      <point x="622" y="46"/>
      <point x="756" y="412"/>
    </contour>
    <contour>
      <point x="766" y="628" type="curve" smooth="yes"/>
      <point x="766" y="412"/>
      <point x="632" y="-20"/>
      <point x="350" y="-20" type="curve" smooth="yes"/>
      <point x="212" y="-20"/>
      <point x="32" y="60"/>
      <point x="32" y="320" type="curve" smooth="yes"/>
      <point x="32" y="720"/>
      <point x="346" y="940"/>
      <point x="552" y="940" type="curve" smooth="yes"/>
      <point x="704" y="940"/>
      <point x="766" y="812"/>
    </contour>
  </outline>
</glyph>
<glyph name="r" format="2">
  <advance width="953"/>
  <unicode hex="0072"/>
  <outline>
    <contour>
      <point x="1004" y="728" type="curve" smooth="yes"/>
      <point x="1004" y="635"/>
      <point x="944" y="556"/>
      <point x="838" y="556" type="curve" smooth="yes"/>
      <point x="742" y="556"/>
      <point x="670" y="617"/>
      <point x="670" y="716" type="curve" smooth="yes"/>
      <point x="670" y="806"/>
      <point x="740" y="880"/>
      <point x="838" y="880" type="curve" smooth="yes"/>
      <point x="902" y="880"/>
      <point x="946" y="843"/>
      <point x="965" y="801" type="curve"/>
      <point x="940" y="882"/>
      <point x="857" y="929"/>
      <point x="778" y="929" type="curve" smooth="yes"/>
      <point x="555" y="929"/>
      <point x="458" y="542"/>
      <point x="410" y="346" type="curve"/>
      <point x="400" y="346" type="line"/>
      <point x="450" y="565"/>
      <point x="546" y="940"/>
      <point x="780" y="940" type="curve" smooth="yes"/>
      <point x="892" y="940"/>
      <point x="1004" y="856"/>
    </contour>
    <contour>
      <point x="270" y="908" type="line"/>
      <point x="122" y="908" type="line"/>
      <point x="122" y="920" type="line"/>
      <point x="542" y="920" type="line"/>
      <point x="332" y="0" type="line"/>
      <point x="52" y="0" type="line"/>
    </contour>
  </outline>
</glyph>
<glyph name="s" format="2">
  <advance width="905"/>
  <unicode hex="0073"/>
  <outline>
    <contour>
      <point x="786" y="782" type="curve"/>
      <point x="764" y="858"/>
      <point x="661" y="926"/>
      <point x="500" y="926" type="curve" smooth="yes"/>
      <point x="382" y="926"/>
      <point x="316" y="862"/>
      <point x="316" y="790" type="curve" smooth="yes"/>
      <point x="316" y="594"/>
      <point x="766" y="570"/>
      <point x="766" y="304" type="curve" smooth="yes"/>
      <point x="766" y="116"/>
      <point x="576" y="-24"/>
      <point x="352" y="-24" type="curve" smooth="yes"/>
      <point x="94" y="-24"/>
      <point x="-8" y="110"/>
      <point x="-8" y="220" type="curve" smooth="yes"/>
      <point x="-8" y="312"/>
      <point x="64" y="364"/>
      <point x="134" y="364" type="curve" smooth="yes"/>
      <point x="194" y="364"/>
      <point x="270" y="322"/>
      <point x="270" y="232" type="curve" smooth="yes"/>
      <point x="270" y="152"/>
      <point x="204" y="102"/>
      <point x="136" y="102" type="curve" smooth="yes"/>
      <point x="72" y="102"/>
      <point x="25" y="141"/>
      <point x="17" y="175" type="curve"/>
      <point x="38" y="84"/>
      <point x="136" y="-12"/>
      <point x="352" y="-12" type="curve" smooth="yes"/>
      <point x="492" y="-12"/>
      <point x="580" y="62"/>
      <point x="580" y="150" type="curve" smooth="yes"/>
      <point x="580" y="330"/>
      <point x="124" y="342"/>
      <point x="124" y="634" type="curve" smooth="yes"/>
      <point x="124" y="832"/>
      <point x="324" y="938"/>
      <point x="498" y="938" type="curve" smooth="yes"/>
      <point x="698" y="938"/>
      <point x="816" y="839"/>
      <point x="816" y="735" type="curve" smooth="yes"/>
      <point x="816" y="653"/>
      <point x="761" y="606"/>
      <point x="691" y="606" type="curve" smooth="yes"/>
      <point x="631" y="606"/>
      <point x="562" y="648"/>
      <point x="562" y="728" type="curve" smooth="yes"/>
      <point x="562" y="798"/>
      <point x="618" y="848"/>
      <point x="682" y="848" type="curve" smooth="yes"/>
      <point x="737" y="848"/>
      <point x="768" y="823"/>
    </contour>
  </outline>
</glyph>
<glyph name="t" format="2">
  <advance width="732"/>
  <unicode hex="0074"/>
  <outline>
    <contour>
      <point x="93" y="920" type="line"/>
      <point x="733" y="920" type="line"/>
      <point x="733" y="908" type="line"/>
      <point x="93" y="908" type="line"/>
    </contour>
    <contour>
      <point x="689" y="326" type="line"/>
      <point x="613" y="126"/>
      <point x="475" y="-20"/>
      <point x="283" y="-20" type="curve" smooth="yes"/>
      <point x="159" y="-20"/>
      <point x="93" y="26"/>
      <point x="93" y="146" type="curve" smooth="yes"/>
      <point x="93" y="156"/>
      <point x="95" y="178"/>
      <point x="98" y="190" type="curve" smooth="yes"/>
      <point x="311" y="1120" type="line"/>
      <point x="589" y="1120" type="line"/>
      <point x="355" y="100" type="line" smooth="yes"/>
      <point x="353" y="88"/>
      <point x="351" y="74"/>
      <point x="351" y="64" type="curve" smooth="yes"/>
      <point x="351" y="42"/>
      <point x="361" y="26"/>
      <point x="387" y="26" type="curve" smooth="yes"/>
      <point x="505" y="26"/>
      <point x="621" y="174"/>
      <point x="679" y="330" type="curve"/>
    </contour>
  </outline>
</glyph>
<glyph name="u" format="2">
  <advance width="1312"/>
  <unicode hex="0075"/>
  <outline>
    <contour>
      <point x="549" y="920" type="line"/>
      <point x="401" y="288" type="line" smooth="yes"/>
      <point x="365" y="130"/>
      <point x="355" y="28"/>
      <point x="432" y="28" type="curve" smooth="yes"/>
      <point x="551" y="28"/>
      <point x="694" y="259"/>
      <point x="771" y="574" type="curve"/>
      <point x="781" y="574" type="line"/>
      <point x="695" y="256"/>
      <point x="577" y="-20"/>
      <point x="345" y="-20" type="curve" smooth="yes"/>
      <point x="151" y="-20"/>
      <point x="87" y="118"/>
      <point x="123" y="282" type="curve" smooth="yes"/>
      <point x="265" y="908" type="line"/>
      <point x="125" y="908" type="line"/>
      <point x="125" y="920" type="line"/>
    </contour>
    <contour>
      <point x="1273" y="326" type="line"/>
      <point x="1197" y="126"/>
      <point x="1059" y="-20"/>
      <point x="867" y="-20" type="curve" smooth="yes"/>
      <point x="743" y="-20"/>
      <point x="678" y="26"/>
      <point x="678" y="146" type="curve" smooth="yes"/>
      <point x="678" y="156"/>
      <point x="680" y="178"/>
      <point x="682" y="190" type="curve" smooth="yes"/>
      <point x="847" y="920" type="line"/>
      <point x="1129" y="920" type="line"/>
      <point x="938" y="100" type="line" smooth="yes"/>
      <point x="936" y="88"/>
      <point x="934" y="74"/>
      <point x="934" y="64" type="curve" smooth="yes"/>
      <point x="934" y="42"/>
      <point x="944" y="26"/>
      <point x="970" y="26" type="curve" smooth="yes"/>
      <point x="1087" y="26"/>
      <point x="1205" y="172"/>
      <point x="1263" y="330" type="curve"/>
    </contour>
  </outline>
</glyph>
<glyph name="v" format="2">
  <advance width="1203"/>
  <unicode hex="0076"/>
  <outline>
    <contour>
      <point x="540" y="268" type="line" smooth="yes"/>
      <point x="514" y="110"/>
      <point x="490" y="10"/>
      <point x="602" y="10" type="curve" smooth="yes"/>
      <point x="810" y="10"/>
      <point x="1162" y="357"/>
      <point x="1162" y="688" type="curve" smooth="yes"/>
      <point x="1162" y="733"/>
      <point x="1154" y="760"/>
      <point x="1147" y="775" type="curve"/>
      <point x="1144" y="709"/>
      <point x="1072" y="610"/>
      <point x="966" y="610" type="curve" smooth="yes"/>
      <point x="854" y="610"/>
      <point x="796" y="694"/>
      <point x="796" y="774" type="curve" smooth="yes"/>
      <point x="796" y="864"/>
      <point x="869" y="938"/>
      <point x="973" y="938" type="curve" smooth="yes"/>
      <point x="1109" y="938"/>
      <point x="1174" y="820"/>
      <point x="1174" y="688" type="curve" smooth="yes"/>
      <point x="1174" y="354"/>
      <point x="822" y="-20"/>
      <point x="536" y="-20" type="curve" smooth="yes"/>
      <point x="312" y="-20"/>
      <point x="227" y="109"/>
      <point x="261" y="292" type="curve" smooth="yes"/>
      <point x="359" y="820" type="line" smooth="yes"/>
      <point x="361" y="832"/>
      <point x="363" y="846"/>
      <point x="363" y="856" type="curve" smooth="yes"/>
      <point x="363" y="878"/>
      <point x="349" y="894"/>
      <point x="320" y="894" type="curve" smooth="yes"/>
      <point x="194" y="894"/>
      <point x="94" y="738"/>
      <point x="34" y="590" type="curve"/>
      <point x="22" y="594" type="line"/>
      <point x="108" y="794"/>
      <point x="216" y="940"/>
      <point x="428" y="940" type="curve" smooth="yes"/>
      <point x="562" y="940"/>
      <point x="617" y="885"/>
      <point x="617" y="789" type="curve" smooth="yes"/>
      <point x="617" y="759"/>
      <point x="614" y="740"/>
      <point x="610" y="716" type="curve" smooth="yes"/>
    </contour>
  </outline>
</glyph>
<glyph name="w" format="2">
  <advance width="1799"/>
  <unicode hex="0077"/>
  <outline>
    <contour>
      <point x="463" y="297" type="line" smooth="yes"/>
      <point x="411" y="143"/>
      <point x="415" y="18"/>
      <point x="507" y="18" type="curve" smooth="yes"/>
      <point x="667" y="18"/>
      <point x="808" y="273"/>
      <point x="880" y="574" type="curve"/>
      <point x="890" y="574" type="line"/>
      <point x="814" y="286"/>
      <point x="700" y="-20"/>
      <point x="426" y="-20" type="curve" smooth="yes"/>
      <point x="212" y="-20"/>
      <point x="123" y="104"/>
      <point x="182" y="282" type="curve" smooth="yes"/>
      <point x="360" y="820" type="line" smooth="yes"/>
      <point x="364" y="832"/>
      <point x="366" y="846"/>
      <point x="366" y="856" type="curve" smooth="yes"/>
      <point x="366" y="878"/>
      <point x="353" y="894"/>
      <point x="325" y="894" type="curve" smooth="yes"/>
      <point x="200" y="894"/>
      <point x="104" y="756"/>
      <point x="34" y="590" type="curve"/>
      <point x="22" y="594" type="line"/>
      <point x="108" y="794"/>
      <point x="216" y="940"/>
      <point x="428" y="940" type="curve" smooth="yes"/>
      <point x="552" y="940"/>
      <point x="619" y="890"/>
      <point x="619" y="784" type="curve" smooth="yes"/>
      <point x="619" y="754"/>
      <point x="613" y="730"/>
      <point x="609" y="716" type="curve" smooth="yes"/>
    </contour>
    <contour>
      <point x="962" y="920" type="line"/>
      <point x="1242" y="920" type="line"/>
      <point x="1110" y="362" type="line" smooth="yes"/>
      <point x="1070" y="194"/>
      <point x="1078" y="9"/>
      <point x="1236" y="9" type="curve" smooth="yes"/>
      <point x="1541" y="9"/>
      <point x="1758" y="453"/>
      <point x="1758" y="688" type="curve" smooth="yes"/>
      <point x="1758" y="723"/>
      <point x="1752" y="752"/>
      <point x="1747" y="765" type="curve"/>
      <point x="1739" y="679"/>
      <point x="1667" y="610"/>
      <point x="1559" y="610" type="curve" smooth="yes"/>
      <point x="1449" y="610"/>
      <point x="1390" y="694"/>
      <point x="1390" y="774" type="curve" smooth="yes"/>
      <point x="1390" y="864"/>
      <point x="1468" y="938"/>
      <point x="1567" y="938" type="curve" smooth="yes"/>
      <point x="1683" y="938"/>
      <point x="1770" y="840"/>
      <point x="1770" y="688" type="curve" smooth="yes"/>
      <point x="1770" y="468"/>
      <point x="1570" y="-20"/>
      <point x="1180" y="-20" type="curve" smooth="yes"/>
      <point x="992" y="-20"/>
      <point x="766" y="68"/>
      <point x="839" y="413" type="curve"/>
    </contour>
  </outline>
</glyph>
<glyph name="x" format="2">
  <advance width="1224"/>
  <unicode hex="0078"/>
  <outline>
    <contour>
      <point x="645" y="485" type="line"/>
      <point x="765" y="681"/>
      <point x="865" y="940"/>
      <point x="1053" y="940" type="curve" smooth="yes"/>
      <point x="1195" y="940"/>
      <point x="1255" y="832"/>
      <point x="1255" y="748" type="curve" smooth="yes"/>
      <point x="1255" y="656"/>
      <point x="1195" y="588"/>
      <point x="1099" y="588" type="curve" smooth="yes"/>
      <point x="999" y="588"/>
      <point x="949" y="672"/>
      <point x="949" y="742" type="curve" smooth="yes"/>
      <point x="949" y="816"/>
      <point x="1012" y="892"/>
      <point x="1102" y="892" type="curve" smooth="yes"/>
      <point x="1156" y="892"/>
      <point x="1199" y="858"/>
      <point x="1219" y="812" type="curve"/>
      <point x="1199" y="878"/>
      <point x="1141" y="928"/>
      <point x="1055" y="928" type="curve" smooth="yes"/>
      <point x="876" y="928"/>
      <point x="779" y="680"/>
      <point x="657" y="479" type="curve"/>
    </contour>
    <contour>
      <point x="608" y="495" type="line"/>
      <point x="466" y="259"/>
      <point x="352" y="-20"/>
      <point x="164" y="-20" type="curve" smooth="yes"/>
      <point x="22" y="-20"/>
      <point x="-38" y="88"/>
      <point x="-38" y="172" type="curve" smooth="yes"/>
      <point x="-38" y="264"/>
      <point x="22" y="332"/>
      <point x="118" y="332" type="curve" smooth="yes"/>
      <point x="218" y="332"/>
      <point x="268" y="248"/>
      <point x="268" y="178" type="curve" smooth="yes"/>
      <point x="268" y="104"/>
      <point x="207" y="28"/>
      <point x="114" y="28" type="curve" smooth="yes"/>
      <point x="52" y="28"/>
      <point x="9" y="73"/>
      <point x="-5" y="120" type="curve"/>
      <point x="15" y="40"/>
      <point x="77" y="-8"/>
      <point x="163" y="-8" type="curve" smooth="yes"/>
      <point x="341" y="-8"/>
      <point x="460" y="271"/>
      <point x="598" y="501" type="curve"/>
    </contour>
    <contour>
      <point x="1133" y="218" type="line"/>
      <point x="1068" y="48"/>
      <point x="967" y="-20"/>
      <point x="823" y="-20" type="curve" smooth="yes"/>
      <point x="669" y="-20"/>
      <point x="607" y="50"/>
      <point x="566" y="166" type="curve" smooth="yes"/>
      <point x="509" y="335"/>
      <point x="414" y="703"/>
      <point x="362" y="847" type="curve" smooth="yes"/>
      <point x="354" y="869"/>
      <point x="340" y="895"/>
      <point x="302" y="895" type="curve" smooth="yes"/>
      <point x="240" y="895"/>
      <point x="174" y="816"/>
      <point x="127" y="693" type="curve"/>
      <point x="117" y="698" type="line"/>
      <point x="181" y="868"/>
      <point x="269" y="944"/>
      <point x="433" y="944" type="curve" smooth="yes"/>
      <point x="587" y="944"/>
      <point x="641" y="874"/>
      <point x="682" y="758" type="curve" smooth="yes"/>
      <point x="741" y="581"/>
      <point x="820" y="273"/>
      <point x="890" y="79" type="curve" smooth="yes"/>
      <point x="898" y="57"/>
      <point x="921" y="30"/>
      <point x="951" y="30" type="curve" smooth="yes"/>
      <point x="1005" y="30"/>
      <point x="1079" y="104"/>
      <point x="1123" y="223" type="curve"/>
    </contour>
  </outline>
</glyph>
<glyph name="y" format="2">
  <advance width="1262"/>
  <unicode hex="0079"/>
  <outline>
    <contour>
      <point x="688" y="-200" type="curve"/>
      <point x="520" y="86"/>
      <point x="368" y="696"/>
      <point x="314" y="840" type="curve" smooth="yes"/>
      <point x="306" y="862"/>
      <point x="291" y="890"/>
      <point x="255" y="890" type="curve" smooth="yes"/>
      <point x="197" y="890"/>
      <point x="116" y="805"/>
      <point x="77" y="688" type="curve"/>
      <point x="66" y="694" type="line"/>
      <point x="132" y="874"/>
      <point x="248" y="940"/>
      <point x="392" y="940" type="curve" smooth="yes"/>
      <point x="529" y="940"/>
      <point x="598" y="868"/>
      <point x="633" y="752" type="curve" smooth="yes"/>
      <point x="688" y="572"/>
      <point x="759" y="242"/>
      <point x="893" y="45" type="curve"/>
      <point x="838" y="-31"/>
      <point x="750" y="-134"/>
    </contour>
    <contour>
      <point x="222" y="-520" type="curve" smooth="yes"/>
      <point x="46" y="-520"/>
      <point x="-40" y="-392"/>
      <point x="-40" y="-272" type="curve" smooth="yes"/>
      <point x="-40" y="-176"/>
      <point x="28" y="-90"/>
      <point x="124" y="-90" type="curve" smooth="yes"/>
      <point x="204" y="-90"/>
      <point x="276" y="-142"/>
      <point x="276" y="-238" type="curve" smooth="yes"/>
      <point x="276" y="-324"/>
      <point x="213" y="-386"/>
      <point x="129" y="-386" type="curve" smooth="yes"/>
      <point x="49" y="-386"/>
      <point x="-8" y="-342"/>
      <point x="-25" y="-286" type="curve"/>
      <point x="-23" y="-389"/>
      <point x="58" y="-508"/>
      <point x="222" y="-508" type="curve" smooth="yes"/>
      <point x="589" y="-508"/>
      <point x="1223" y="468"/>
      <point x="1223" y="720" type="curve" smooth="yes"/>
      <point x="1223" y="752"/>
      <point x="1214" y="780"/>
      <point x="1204" y="797" type="curve"/>
      <point x="1206" y="688"/>
      <point x="1130" y="632"/>
      <point x="1046" y="632" type="curve" smooth="yes"/>
      <point x="938" y="632"/>
      <point x="880" y="716"/>
      <point x="880" y="786" type="curve" smooth="yes"/>
      <point x="880" y="866"/>
      <point x="943" y="940"/>
      <point x="1047" y="940" type="curve" smooth="yes"/>
      <point x="1179" y="940"/>
      <point x="1237" y="824"/>
      <point x="1237" y="722" type="curve" smooth="yes"/>
      <point x="1237" y="462"/>
      <point x="598" y="-520"/>
    </contour>
  </outline>
</glyph>
<glyph name="z" format="2">
  <advance width="908"/>
  <unicode hex="007A"/>
  <outline>
    <contour>
      <point x="52" y="470" type="line"/>
      <point x="160" y="930" type="line"/>
      <point x="268" y="870"/>
      <point x="388" y="852"/>
      <point x="510" y="852" type="curve" smooth="yes"/>
      <point x="626" y="852"/>
      <point x="801" y="869"/>
      <point x="875" y="928" type="curve"/>
      <point x="886" y="917" type="line"/>
      <point x="708" y="779"/>
      <point x="506" y="600"/>
      <point x="348" y="600" type="curve" smooth="yes"/>
      <point x="260" y="600"/>
      <point x="166" y="630"/>
      <point x="114" y="674" type="curve"/>
      <point x="64" y="470" type="line"/>
    </contour>
    <contour>
      <point x="-23" y="6" type="line"/>
      <point x="-59" y="-10" type="line"/>
      <point x="863" y="911" type="line"/>
      <point x="886" y="917" type="line"/>
    </contour>
    <contour>
      <point x="878" y="349" type="curve"/>
      <point x="858" y="290"/>
      <point x="810" y="242"/>
      <point x="734" y="242" type="curve" smooth="yes"/>
      <point x="666" y="242"/>
      <point x="596" y="302"/>
      <point x="596" y="382" type="curve" smooth="yes"/>
      <point x="596" y="472"/>
      <point x="670" y="524"/>
      <point x="740" y="524" type="curve" smooth="yes"/>
      <point x="820" y="524"/>
      <point x="890" y="467"/>
      <point x="890" y="365" type="curve" smooth="yes"/>
      <point x="890" y="245"/>
      <point x="760" y="-20"/>
      <point x="536" y="-20" type="curve" smooth="yes"/>
      <point x="394" y="-20"/>
      <point x="328" y="78"/>
      <point x="196" y="78" type="curve" smooth="yes"/>
      <point x="100" y="78"/>
      <point x="16" y="44"/>
      <point x="-48" y="-20" type="curve"/>
      <point x="-58" y="-10" type="line"/>
      <point x="93" y="110"/>
      <point x="276" y="270"/>
      <point x="416" y="270" type="curve" smooth="yes"/>
      <point x="552" y="270"/>
      <point x="566" y="154"/>
      <point x="716" y="154" type="curve" smooth="yes"/>
      <point x="816" y="154"/>
      <point x="869" y="252"/>
    </contour>
  </outline>
</glyph>
<glyph name="braceleft" format="2">
  <advance width="643"/>
  <unicode hex="007B"/>
  <outline>
    <contour>
      <point x="864" y="1560" type="curve"/>
      <point x="864" y="1534" type="line"/>
      <point x="710" y="1534"/>
      <point x="595" y="1404"/>
      <point x="595" y="1232" type="curve" smooth="yes"/>
      <point x="595" y="1120"/>
      <point x="618" y="1062"/>
      <point x="618" y="922" type="curve" smooth="yes"/>
      <point x="618" y="726"/>
      <point x="348" y="644"/>
      <point x="170" y="624" type="curve"/>
      <point x="170" y="644" type="line"/>
      <point x="230" y="664"/>
      <point x="350" y="712"/>
      <point x="350" y="814" type="curve" smooth="yes"/>
      <point x="350" y="930"/>
      <point x="304" y="968"/>
      <point x="304" y="1142" type="curve" smooth="yes"/>
      <point x="304" y="1400"/>
      <point x="534" y="1560"/>
    </contour>
    <contour>
      <point x="444" y="-300" type="line"/>
      <point x="154" y="-300"/>
      <point x="10" y="-238"/>
      <point x="10" y="-50" type="curve" smooth="yes"/>
      <point x="10" y="194"/>
      <point x="270" y="364"/>
      <point x="270" y="490" type="curve" smooth="yes"/>
      <point x="270" y="572"/>
      <point x="230" y="597"/>
      <point x="170" y="617" type="curve"/>
      <point x="170" y="637" type="line"/>
      <point x="348" y="617"/>
      <point x="484" y="576"/>
      <point x="484" y="420" type="curve" smooth="yes"/>
      <point x="484" y="220"/>
      <point x="296" y="60"/>
      <point x="296" y="-92" type="curve" smooth="yes"/>
      <point x="296" y="-186"/>
      <point x="320" y="-274"/>
      <point x="444" y="-274" type="curve"/>
    </contour>
  </outline>
</glyph>
<glyph name="asciitilde" format="2">
  <advance width="1375"/>
  <unicode hex="007E"/>
  <outline>
    <contour>
      <point x="538" y="844" type="curve" smooth="yes"/>
      <point x="424" y="844"/>
      <point x="361" y="800"/>
      <point x="326" y="686" type="curve"/>
      <point x="300" y="686" type="line"/>
      <point x="350" y="916"/>
      <point x="450" y="1050"/>
      <point x="628" y="1050" type="curve" smooth="yes"/>
      <point x="848" y="1050"/>
      <point x="868" y="862"/>
      <point x="1058" y="862" type="curve" smooth="yes"/>
      <point x="1192" y="862"/>
      <point x="1255" y="906"/>
      <point x="1290" y="1020" type="curve"/>
      <point x="1316" y="1020" type="line"/>
      <point x="1266" y="790"/>
      <point x="1166" y="656"/>
      <point x="988" y="656" type="curve" smooth="yes"/>
      <point x="744" y="656"/>
      <point x="722" y="844"/>
    </contour>
  </outline>
</glyph>
<glyph name="cent" format="2">
  <advance width="2027"/>
  <unicode hex="00A2"/>
  <outline>
    <contour>
      <point x="1438" y="2274" type="line"/>
      <point x="742" y="-348" type="line"/>
      <point x="719" y="-348" type="line"/>
      <point x="1415" y="2274" type="line"/>
    </contour>
    <component base="c"/>
  </outline>
</glyph>
<glyph name="sterling" format="2">
  <advance width="1268"/>
  <unicode hex="00A3"/>
  <outline>
    <contour>
      <point x="1284" y="434" type="line"/>
      <point x="1244" y="136"/>
      <point x="1062" y="-60"/>
      <point x="826" y="-60" type="curve" smooth="yes"/>
      <point x="552" y="-60"/>
      <point x="407" y="60"/>
      <point x="281" y="60" type="curve" smooth="yes"/>
      <point x="191" y="60"/>
      <point x="110" y="20"/>
      <point x="78" y="-40" type="curve"/>
      <point x="70" y="-40" type="line"/>
      <point x="140" y="148"/>
      <point x="344" y="314"/>
      <point x="538" y="314" type="curve" smooth="yes"/>
      <point x="736" y="314"/>
      <point x="774" y="246"/>
      <point x="950" y="246" type="curve" smooth="yes"/>
      <point x="1100" y="246"/>
      <point x="1232" y="270"/>
      <point x="1272" y="434" type="curve"/>
    </contour>
    <contour>
      <point x="1130" y="810" type="line"/>
      <point x="1130" y="798" type="line"/>
      <point x="130" y="798" type="line"/>
      <point x="130" y="810" type="line"/>
    </contour>
    <contour>
      <point x="356" y="1030" type="curve" smooth="yes"/>
      <point x="356" y="1330"/>
      <point x="667" y="1520"/>
      <point x="1029" y="1520" type="curve" smooth="yes"/>
      <point x="1323" y="1520"/>
      <point x="1449" y="1356"/>
      <point x="1449" y="1172" type="curve" smooth="yes"/>
      <point x="1449" y="1060"/>
      <point x="1366" y="988"/>
      <point x="1276" y="988" type="curve" smooth="yes"/>
      <point x="1186" y="988"/>
      <point x="1102" y="1050"/>
      <point x="1102" y="1160" type="curve" smooth="yes"/>
      <point x="1102" y="1260"/>
      <point x="1188" y="1320"/>
      <point x="1276" y="1320" type="curve" smooth="yes"/>
      <point x="1362" y="1320"/>
      <point x="1422" y="1259"/>
      <point x="1435" y="1205" type="curve"/>
      <point x="1425" y="1370"/>
      <point x="1289" y="1502"/>
      <point x="1079" y="1502" type="curve" smooth="yes"/>
      <point x="841" y="1502"/>
      <point x="718" y="1278"/>
      <point x="718" y="1130" type="curve" smooth="yes"/>
      <point x="718" y="1002"/>
      <point x="760" y="940"/>
      <point x="760" y="780" type="curve" smooth="yes"/>
      <point x="760" y="380"/>
      <point x="60" y="330"/>
      <point x="76" y="-40" type="curve"/>
      <point x="64" y="-40" type="line"/>
      <point x="36" y="238"/>
      <point x="418" y="384"/>
      <point x="418" y="622" type="curve" smooth="yes"/>
      <point x="418" y="740"/>
      <point x="356" y="860"/>
    </contour>
  </outline>
</glyph>
<glyph name="brokenbar" format="2">
  <advance width="439"/>
  <unicode hex="00A6"/>
  <outline>
    <contour>
      <point x="211" y="332" type="line"/>
      <point x="223" y="332" type="line"/>
      <point x="31" y="-500" type="line"/>
      <point x="19" y="-500" type="line"/>
    </contour>
    <contour>
      <point x="495" y="1560" type="line"/>
      <point x="507" y="1560" type="line"/>
      <point x="335" y="818" type="line"/>
      <point x="323" y="818" type="line"/>
    </contour>
  </outline>
</glyph>
<glyph name="section" format="2">
  <advance width="947"/>
  <unicode hex="00A7"/>
  <outline>
    <contour>
      <point x="452" y="1286" type="curve" smooth="yes"/>
      <point x="452" y="1066"/>
      <point x="946" y="1116"/>
      <point x="946" y="818" type="curve" smooth="yes"/>
      <point x="946" y="662"/>
      <point x="769" y="586"/>
      <point x="664" y="518" type="curve"/>
      <point x="656" y="520" type="line"/>
      <point x="720" y="564"/>
      <point x="768" y="608"/>
      <point x="768" y="688" type="curve" smooth="yes"/>
      <point x="768" y="896"/>
      <point x="281" y="817"/>
      <point x="281" y="1161" type="curve" smooth="yes"/>
      <point x="281" y="1369"/>
      <point x="506" y="1520"/>
      <point x="716" y="1520" type="curve" smooth="yes"/>
      <point x="912" y="1520"/>
      <point x="1037" y="1394"/>
      <point x="1037" y="1262" type="curve" smooth="yes"/>
      <point x="1037" y="1140"/>
      <point x="974" y="1080"/>
      <point x="884" y="1080" type="curve" smooth="yes"/>
      <point x="804" y="1080"/>
      <point x="746" y="1130"/>
      <point x="746" y="1222" type="curve" smooth="yes"/>
      <point x="746" y="1296"/>
      <point x="811" y="1352"/>
      <point x="888" y="1352" type="curve" smooth="yes"/>
      <point x="964" y="1352"/>
      <point x="1007" y="1308"/>
      <point x="1022" y="1282" type="curve"/>
      <point x="1012" y="1384"/>
      <point x="917" y="1507"/>
      <point x="716" y="1507" type="curve" smooth="yes"/>
      <point x="570" y="1507"/>
      <point x="452" y="1410"/>
    </contour>
    <contour>
      <point x="840" y="354" type="curve" smooth="yes"/>
      <point x="840" y="146"/>
      <point x="610" y="-20"/>
      <point x="360" y="-20" type="curve" smooth="yes"/>
      <point x="184" y="-20"/>
      <point x="-8" y="63"/>
      <point x="-8" y="255" type="curve" smooth="yes"/>
      <point x="-8" y="347"/>
      <point x="60" y="429"/>
      <point x="160" y="429" type="curve" smooth="yes"/>
      <point x="240" y="429"/>
      <point x="300" y="382"/>
      <point x="300" y="300" type="curve" smooth="yes"/>
      <point x="300" y="216"/>
      <point x="234" y="157"/>
      <point x="148" y="157" type="curve" smooth="yes"/>
      <point x="76" y="157"/>
      <point x="23" y="196"/>
      <point x="5" y="243" type="curve"/>
      <point x="16" y="66"/>
      <point x="194" y="-8"/>
      <point x="360" y="-8" type="curve" smooth="yes"/>
      <point x="566" y="-8"/>
      <point x="662" y="124"/>
      <point x="662" y="214" type="curve" smooth="yes"/>
      <point x="662" y="432"/>
      <point x="138" y="384"/>
      <point x="138" y="670" type="curve" smooth="yes"/>
      <point x="138" y="814"/>
      <point x="306" y="948"/>
      <point x="404" y="990" type="curve"/>
      <point x="415" y="990" type="line"/>
      <point x="381" y="968"/>
      <point x="335" y="923"/>
      <point x="335" y="842" type="curve" smooth="yes"/>
      <point x="335" y="614"/>
      <point x="840" y="678"/>
    </contour>
  </outline>
</glyph>
<glyph name="registered" format="2">
  <advance width="1739"/>
  <unicode hex="00AE"/>
  <outline>
    <contour>
      <point x="170" y="610" type="curve" smooth="yes"/>
      <point x="170" y="1076"/>
      <point x="614" y="1520"/>
      <point x="1080" y="1520" type="curve" smooth="yes"/>
      <point x="1466" y="1520"/>
      <point x="1750" y="1276"/>
      <point x="1750" y="890" type="curve" smooth="yes"/>
      <point x="1750" y="424"/>
      <point x="1306" y="-20"/>
      <point x="840" y="-20" type="curve" smooth="yes"/>
      <point x="454" y="-20"/>
      <point x="170" y="224"/>
    </contour>
    <contour>
      <point x="182" y="610" type="curve" smooth="yes"/>
      <point x="182" y="230"/>
      <point x="460" y="-8"/>
      <point x="840" y="-8" type="curve" smooth="yes"/>
      <point x="1298" y="-8"/>
      <point x="1738" y="430"/>
      <point x="1738" y="890" type="curve" smooth="yes"/>
      <point x="1738" y="1270"/>
      <point x="1460" y="1508"/>
      <point x="1080" y="1508" type="curve" smooth="yes"/>
      <point x="622" y="1508"/>
      <point x="182" y="1070"/>
    </contour>
    <component base="R" xScale="0.6" yScale="0.6" xOffset="486" yOffset="296"/>
  </outline>
</glyph>
<glyph name="acute" format="2">
  <advance width="809"/>
  <unicode hex="00B4"/>
  <outline>
    <contour>
      <point x="920" y="1390" type="curve" smooth="yes"/>
      <point x="460" y="1434" type="line"/>
      <point x="455" y="1446" type="line"/>
      <point x="900" y="1606" type="line" smooth="yes"/>
      <point x="978" y="1635"/>
      <point x="1050" y="1568"/>
      <point x="1050" y="1500" type="curve" smooth="yes"/>
      <point x="1050" y="1432"/>
      <point x="988" y="1381"/>
    </contour>
  </outline>
</glyph>
<glyph name="mu" format="2">
  <advance width="1312"/>
  <unicode hex="00B5"/>
  <outline>
    <contour>
      <point x="29" y="-182" type="line" smooth="yes"/>
      <point x="-13" y="-368"/>
      <point x="17" y="-506"/>
      <point x="193" y="-510" type="curve"/>
      <point x="240" y="-506" type="line"/>
      <point x="186" y="-492"/>
      <point x="131" y="-456"/>
      <point x="131" y="-376" type="curve" smooth="yes"/>
      <point x="131" y="-304"/>
      <point x="191" y="-250"/>
      <point x="257" y="-250" type="curve" smooth="yes"/>
      <point x="323" y="-250"/>
      <point x="384" y="-304"/>
      <point x="384" y="-380" type="curve" smooth="yes"/>
      <point x="384" y="-458"/>
      <point x="338" y="-520"/>
      <point x="192" y="-520" type="curve" smooth="yes"/>
      <point x="12" y="-520"/>
      <point x="-26" y="-372"/>
      <point x="18" y="-182" type="curve" smooth="yes"/>
      <point x="208" y="642" type="line"/>
      <point x="219" y="642" type="line"/>
    </contour>
    <component base="u"/>
  </outline>
</glyph>
<glyph name="cedilla" format="2">
  <advance width="1099"/>
  <unicode hex="00B8"/>
  <outline>
    <contour>
      <point x="474" y="-158" type="line"/>
      <point x="714" y="82" type="line"/>
      <point x="730" y="82" type="line"/>
      <point x="490" y="-158" type="line"/>
    </contour>
    <contour>
      <point x="474" y="-158" type="curve"/>
      <point x="561" y="-78" type="line"/>
      <point x="731" y="-78"/>
      <point x="868" y="-110"/>
      <point x="868" y="-220" type="curve" smooth="yes"/>
      <point x="868" y="-360"/>
      <point x="664" y="-440"/>
      <point x="432" y="-440" type="curve"/>
      <point x="432" y="-428" type="line"/>
      <point x="550" y="-428"/>
      <point x="638" y="-364"/>
      <point x="638" y="-260" type="curve" smooth="yes"/>
      <point x="638" y="-184"/>
      <point x="584" y="-158"/>
    </contour>
  </outline>
</glyph>
<glyph name="AE" format="2">
  <advance width="2059"/>
  <unicode hex="00C6"/>
  <outline>
    <contour>
      <point x="1428" y="1500" type="line"/>
      <point x="2248" y="1500" type="line"/>
      <point x="2152" y="1090" type="line"/>
      <point x="2140" y="1090" type="line"/>
      <point x="2160" y="1304"/>
      <point x="2062" y="1488"/>
      <point x="1828" y="1488" type="curve" smooth="yes"/>
      <point x="1428" y="1488" type="line"/>
    </contour>
    <contour>
      <point x="1506" y="770" type="curve" smooth="yes"/>
      <point x="1374" y="770" type="line"/>
      <point x="1374" y="782" type="line"/>
      <point x="1506" y="782" type="line" smooth="yes"/>
      <point x="1620" y="782"/>
      <point x="1753" y="882"/>
      <point x="1813" y="1016" type="curve"/>
      <point x="1825" y="1016" type="line"/>
      <point x="1712" y="526" type="line"/>
      <point x="1700" y="526" type="line"/>
      <point x="1700" y="660"/>
      <point x="1620" y="770"/>
    </contour>
    <contour>
      <point x="1920" y="0" type="line"/>
      <point x="800" y="0" type="line"/>
      <point x="800" y="12" type="line"/>
      <point x="1480" y="12" type="line" smooth="yes"/>
      <point x="1754" y="12"/>
      <point x="1924" y="196"/>
      <point x="2012" y="450" type="curve"/>
      <point x="2024" y="450" type="line"/>
    </contour>
    <contour>
      <point x="1318" y="1500" type="line"/>
      <point x="1628" y="1500" type="line"/>
      <point x="1280" y="0" type="line"/>
      <point x="970" y="0" type="line"/>
    </contour>
    <contour>
      <point x="526" y="496" type="line"/>
      <point x="1110" y="496" type="line"/>
      <point x="1110" y="484" type="line"/>
      <point x="526" y="484" type="line"/>
    </contour>
    <contour>
      <point x="1308" y="1500" type="line"/>
      <point x="1324" y="1500" type="line"/>
      <point x="150" y="0" type="line"/>
      <point x="132" y="0" type="line"/>
    </contour>
    <contour>
      <point x="-50" y="12" type="line"/>
      <point x="390" y="12" type="line"/>
      <point x="390" y="0" type="line"/>
      <point x="-50" y="0" type="line"/>
    </contour>
  </outline>
</glyph>
<glyph name="Eth" format="2">
  <advance width="1514"/>
  <unicode hex="00D0"/>
  <outline>
    <contour>
      <point x="167" y="756" type="line"/>
      <point x="810" y="756" type="line"/>
      <point x="810" y="744" type="line"/>
      <point x="167" y="744" type="line"/>
    </contour>
    <contour>
      <point x="474" y="1500" type="line"/>
      <point x="783" y="1500" type="line"/>
      <point x="443" y="0" type="line"/>
      <point x="133" y="0" type="line"/>
    </contour>
    <contour>
      <point x="644" y="0" type="curve" smooth="yes"/>
      <point x="-47" y="0" type="line"/>
      <point x="-47" y="12" type="line"/>
      <point x="604" y="12" type="line" smooth="yes"/>
      <point x="1002" y="12"/>
      <point x="1204" y="726"/>
      <point x="1204" y="1100" type="curve" smooth="yes"/>
      <point x="1204" y="1284"/>
      <point x="1151" y="1488"/>
      <point x="933" y="1488" type="curve" smooth="yes"/>
      <point x="273" y="1488" type="line"/>
      <point x="273" y="1500" type="line"/>
      <point x="963" y="1500" type="line" smooth="yes"/>
      <point x="1289" y="1500"/>
      <point x="1543" y="1326"/>
      <point x="1543" y="970" type="curve" smooth="yes"/>
      <point x="1543" y="454"/>
      <point x="1160" y="0"/>
    </contour>
  </outline>
</glyph>
<glyph name="germandbls" format="2">
  <advance width="1531"/>
  <unicode hex="00DF"/>
  <outline>
    <contour>
      <point x="1472" y="430" type="curve" smooth="yes"/>
      <point x="1472" y="100"/>
      <point x="1174" y="-20"/>
      <point x="942" y="-20" type="curve" smooth="yes"/>
      <point x="744" y="-20"/>
      <point x="656" y="118"/>
      <point x="656" y="272" type="curve" smooth="yes"/>
      <point x="656" y="394"/>
      <point x="730" y="482"/>
      <point x="830" y="482" type="curve" smooth="yes"/>
      <point x="920" y="482"/>
      <point x="988" y="422"/>
      <point x="988" y="330" type="curve" smooth="yes"/>
      <point x="988" y="246"/>
      <point x="898" y="180"/>
      <point x="820" y="180" type="curve" smooth="yes"/>
      <point x="742" y="180"/>
      <point x="689" y="223"/>
      <point x="669" y="274" type="curve"/>
      <point x="663" y="122"/>
      <point x="756" y="-4"/>
      <point x="922" y="-4" type="curve" smooth="yes"/>
      <point x="1100" y="-4"/>
      <point x="1160" y="252"/>
      <point x="1160" y="440" type="curve" smooth="yes"/>
      <point x="1160" y="628"/>
      <point x="1084" y="804"/>
      <point x="906" y="804" type="curve"/>
      <point x="906" y="814" type="line"/>
      <point x="1268" y="814"/>
      <point x="1472" y="690"/>
    </contour>
    <contour>
      <point x="-50" y="12" type="line"/>
      <point x="610" y="12" type="line"/>
      <point x="610" y="0" type="line"/>
      <point x="-50" y="0" type="line"/>
    </contour>
    <contour>
      <point x="906" y="808" type="curve"/>
      <point x="906" y="818" type="line"/>
      <point x="1164" y="818"/>
      <point x="1280" y="1064"/>
      <point x="1280" y="1232" type="curve" smooth="yes"/>
      <point x="1280" y="1376"/>
      <point x="1224" y="1510"/>
      <point x="1076" y="1510" type="curve" smooth="yes"/>
      <point x="788" y="1510"/>
      <point x="712" y="1232"/>
      <point x="650" y="962" type="curve" smooth="yes"/>
      <point x="430" y="0" type="line"/>
      <point x="130" y="0" type="line"/>
      <point x="355" y="982" type="line" smooth="yes"/>
      <point x="435" y="1339"/>
      <point x="690" y="1520"/>
      <point x="1086" y="1520" type="curve" smooth="yes"/>
      <point x="1352" y="1520"/>
      <point x="1597" y="1428"/>
      <point x="1597" y="1202" type="curve" smooth="yes"/>
      <point x="1597" y="962"/>
      <point x="1308" y="808"/>
    </contour>
  </outline>
</glyph>
<glyph name="ae" format="2">
  <advance width="1675"/>
  <unicode hex="00E6"/>
  <outline>
    <contour>
      <point x="548" y="508" type="curve" smooth="yes"/>
      <point x="716" y="508" type="line"/>
      <point x="716" y="496" type="line"/>
      <point x="608" y="496" type="line" smooth="yes"/>
      <point x="466" y="496"/>
      <point x="333" y="340"/>
      <point x="333" y="156" type="curve" smooth="yes"/>
      <point x="333" y="52"/>
      <point x="370" y="-5"/>
      <point x="420" y="-5" type="curve" smooth="yes"/>
      <point x="524" y="-5"/>
      <point x="612" y="166"/>
      <point x="656" y="362" type="curve" smooth="yes"/>
      <point x="712" y="610" type="line" smooth="yes"/>
      <point x="740" y="738"/>
      <point x="736" y="923"/>
      <point x="586" y="923" type="curve" smooth="yes"/>
      <point x="487" y="923"/>
      <point x="366" y="887"/>
      <point x="311" y="825" type="curve"/>
      <point x="431" y="886"/>
      <point x="548" y="830"/>
      <point x="548" y="736" type="curve" smooth="yes"/>
      <point x="548" y="646"/>
      <point x="470" y="582"/>
      <point x="380" y="582" type="curve" smooth="yes"/>
      <point x="280" y="582"/>
      <point x="226" y="630"/>
      <point x="226" y="712" type="curve" smooth="yes"/>
      <point x="226" y="836"/>
      <point x="404" y="936"/>
      <point x="606" y="936" type="curve" smooth="yes"/>
      <point x="866" y="936"/>
      <point x="974" y="822"/>
      <point x="942" y="610" type="curve"/>
      <point x="866" y="362" type="line"/>
      <point x="820" y="114"/>
      <point x="602" y="-20"/>
      <point x="360" y="-20" type="curve" smooth="yes"/>
      <point x="182" y="-20"/>
      <point x="36" y="38"/>
      <point x="36" y="186" type="curve" smooth="yes"/>
      <point x="36" y="374"/>
      <point x="224" y="508"/>
    </contour>
    <contour>
      <point x="1396" y="762" type="curve" smooth="yes"/>
      <point x="1396" y="846"/>
      <point x="1379" y="929"/>
      <point x="1322" y="929" type="curve" smooth="yes"/>
      <point x="1194" y="929"/>
      <point x="1008" y="588"/>
      <point x="1008" y="260" type="curve" smooth="yes"/>
      <point x="1008" y="122"/>
      <point x="1050" y="11"/>
      <point x="1158" y="11" type="curve" smooth="yes"/>
      <point x="1302" y="11"/>
      <point x="1465" y="132"/>
      <point x="1556" y="286" type="curve"/>
      <point x="1568" y="286" type="line"/>
      <point x="1480" y="132"/>
      <point x="1310" y="-20"/>
      <point x="1058" y="-20" type="curve" smooth="yes"/>
      <point x="896" y="-20"/>
      <point x="750" y="80"/>
      <point x="750" y="320" type="curve"/>
      <point x="790" y="310" type="line"/>
      <point x="794" y="690"/>
      <point x="1052" y="940"/>
      <point x="1342" y="940" type="curve" smooth="yes"/>
      <point x="1506" y="940"/>
      <point x="1668" y="888"/>
      <point x="1668" y="734" type="curve" smooth="yes"/>
      <point x="1668" y="430"/>
      <point x="1132" y="426"/>
      <point x="990" y="426" type="curve"/>
      <point x="990" y="436" type="line"/>
      <point x="1128" y="436"/>
      <point x="1396" y="496"/>
    </contour>
  </outline>
</glyph>
<glyph name="eth" format="2">
  <advance width="1219"/>
  <unicode hex="00F0"/>
  <outline>
    <contour>
      <point x="470" y="1260" type="line"/>
      <point x="1350" y="1260" type="line"/>
      <point x="1350" y="1248" type="line"/>
      <point x="470" y="1248" type="line"/>
    </contour>
    <contour>
      <point x="1214" y="780" type="curve" smooth="yes"/>
      <point x="1214" y="360"/>
      <point x="874" y="-20"/>
      <point x="522" y="-20" type="curve" smooth="yes"/>
      <point x="250" y="-20"/>
      <point x="80" y="100"/>
      <point x="80" y="360" type="curve" smooth="yes"/>
      <point x="80" y="760"/>
      <point x="436" y="980"/>
      <point x="678" y="980" type="curve" smooth="yes"/>
      <point x="861" y="980"/>
      <point x="889" y="868"/>
      <point x="879" y="634" type="curve"/>
      <point x="868" y="740" type="line"/>
      <point x="868" y="850"/>
      <point x="830" y="952"/>
      <point x="742" y="952" type="curve" smooth="yes"/>
      <point x="554" y="952"/>
      <point x="387" y="518"/>
      <point x="387" y="240" type="curve" smooth="yes"/>
      <point x="387" y="102"/>
      <point x="410" y="-8"/>
      <point x="518" y="-8" type="curve" smooth="yes"/>
      <point x="686" y="-8"/>
      <point x="868" y="462"/>
      <point x="868" y="740" type="curve"/>
      <point x="874" y="737" type="line"/>
      <point x="888" y="1166"/>
      <point x="864" y="1510"/>
      <point x="480" y="1510" type="curve"/>
      <point x="480" y="1520" type="line"/>
      <point x="976" y="1520"/>
      <point x="1214" y="1196"/>
    </contour>
  </outline>
</glyph>
<glyph name="thorn" format="2">
  <advance width="1222"/>
  <unicode hex="00FE"/>
  <outline>
    <contour>
      <point x="442" y="294" type="curve" smooth="yes"/>
      <point x="442" y="168"/>
      <point x="477" y="55"/>
      <point x="555" y="55" type="curve" smooth="yes"/>
      <point x="693" y="55"/>
      <point x="860" y="402"/>
      <point x="860" y="670" type="curve" smooth="yes"/>
      <point x="860" y="794"/>
      <point x="819" y="876"/>
      <point x="747" y="876" type="curve" smooth="yes"/>
      <point x="575" y="876"/>
      <point x="442" y="510"/>
    </contour>
    <contour>
      <point x="432" y="294" type="curve" smooth="yes"/>
      <point x="432" y="510"/>
      <point x="565" y="942"/>
      <point x="847" y="942" type="curve" smooth="yes"/>
      <point x="985" y="942"/>
      <point x="1168" y="862"/>
      <point x="1168" y="602" type="curve" smooth="yes"/>
      <point x="1168" y="202"/>
      <point x="851" y="-16"/>
      <point x="645" y="-16" type="curve" smooth="yes"/>
      <point x="493" y="-16"/>
      <point x="432" y="110"/>
    </contour>
    <contour>
      <point x="-170" y="-488" type="line"/>
      <point x="380" y="-488" type="line"/>
      <point x="380" y="-500" type="line"/>
      <point x="-170" y="-500" type="line"/>
    </contour>
    <contour>
      <point x="416" y="1488" type="line"/>
      <point x="276" y="1488" type="line"/>
      <point x="276" y="1500" type="line"/>
      <point x="700" y="1500" type="line"/>
      <point x="489" y="578" type="line"/>
      <point x="451" y="444" type="line"/>
      <point x="436" y="339" type="line"/>
      <point x="240" y="-500" type="line"/>
      <point x="-40" y="-500" type="line"/>
    </contour>
  </outline>
</glyph>
<glyph name="dotlessi" format="2">
  <advance width="732"/>
  <unicode hex="0131"/>
  <outline>
    <contour>
      <point x="693" y="326" type="line"/>
      <point x="617" y="126"/>
      <point x="479" y="-20"/>
      <point x="287" y="-20" type="curve" smooth="yes"/>
      <point x="163" y="-20"/>
      <point x="100" y="26"/>
      <point x="100" y="146" type="curve" smooth="yes"/>
      <point x="100" y="156"/>
      <point x="101" y="178"/>
      <point x="104" y="190" type="curve" smooth="yes"/>
      <point x="276" y="908" type="line"/>
      <point x="125" y="908" type="line"/>
      <point x="125" y="920" type="line"/>
      <point x="559" y="920" type="line"/>
      <point x="360" y="100" type="line" smooth="yes"/>
      <point x="358" y="88"/>
      <point x="356" y="74"/>
      <point x="356" y="64" type="curve" smooth="yes"/>
      <point x="356" y="42"/>
      <point x="366" y="23"/>
      <point x="392" y="23" type="curve" smooth="yes"/>
      <point x="495" y="23"/>
      <point x="618" y="154"/>
      <point x="683" y="330" type="curve"/>
    </contour>
  </outline>
</glyph>
<glyph name="lslash" format="2">
  <advance width="1463"/>
  <unicode hex="0142"/>
  <outline>
    <contour>
      <point x="127" y="1556" type="line"/>
      <point x="1540" y="2376" type="line"/>
      <point x="1540" y="2345" type="line"/>
      <point x="127" y="1526" type="line"/>
    </contour>
    <component base="l"/>
  </outline>
</glyph>
<glyph name="uni0213" format="2">
  <advance width="953"/>
  <unicode hex="0213"/>
  <outline>
    <contour>
      <point x="853" y="1070" type="line"/>
      <point x="868" y="1156"/>
      <point x="773" y="1198"/>
      <point x="665" y="1198" type="curve" smooth="yes"/>
      <point x="557" y="1198"/>
      <point x="423" y="1168"/>
      <point x="397" y="1070" type="curve"/>
      <point x="385" y="1070" type="line"/>
      <point x="405" y="1192"/>
      <point x="475" y="1388"/>
      <point x="685" y="1388" type="curve" smooth="yes"/>
      <point x="885" y="1388"/>
      <point x="885" y="1192"/>
      <point x="865" y="1070" type="curve"/>
    </contour>
    <component base="r"/>
  </outline>
</glyph>
<glyph name="uni0237" format="2">
  <advance width="598"/>
  <unicode hex="0237"/>
  <outline>
    <contour>
      <point x="-370" y="-355" type="curve"/>
      <point x="-347" y="-430"/>
      <point x="-255" y="-506"/>
      <point x="-144" y="-506" type="curve" smooth="yes"/>
      <point x="46" y="-506"/>
      <point x="34" y="-200"/>
      <point x="90" y="40" type="curve" smooth="yes"/>
      <point x="292" y="908" type="line"/>
      <point x="106" y="908" type="line"/>
      <point x="106" y="920" type="line"/>
      <point x="571" y="920" type="line"/>
      <point x="375" y="-24" type="line" smooth="yes"/>
      <point x="323" y="-274"/>
      <point x="126" y="-520"/>
      <point x="-134" y="-520" type="curve" smooth="yes"/>
      <point x="-296" y="-520"/>
      <point x="-410" y="-396"/>
      <point x="-410" y="-292" type="curve" smooth="yes"/>
      <point x="-410" y="-190"/>
      <point x="-326" y="-118"/>
      <point x="-236" y="-118" type="curve" smooth="yes"/>
      <point x="-156" y="-118"/>
      <point x="-84" y="-176"/>
      <point x="-84" y="-260" type="curve" smooth="yes"/>
      <point x="-84" y="-354"/>
      <point x="-164" y="-419"/>
      <point x="-256" y="-419" type="curve" smooth="yes"/>
      <point x="-312" y="-419"/>
      <point x="-349" y="-389"/>
    </contour>
  </outline>
</glyph>
<glyph name="ring" format="2">
  <advance width="1310"/>
  <unicode hex="02DA"/>
  <outline>
    <contour>
      <point x="727" y="2786" type="curve" smooth="yes"/>
      <point x="727" y="2994"/>
      <point x="897" y="3154"/>
      <point x="1146" y="3154" type="curve" smooth="yes"/>
      <point x="1395" y="3154"/>
      <point x="1567" y="2994"/>
      <point x="1567" y="2786" type="curve" smooth="yes"/>
      <point x="1567" y="2578"/>
      <point x="1395" y="2416"/>
      <point x="1146" y="2416" type="curve" smooth="yes"/>
      <point x="897" y="2416"/>
      <point x="727" y="2578"/>
    </contour>
    <contour>
      <point x="969" y="2636" type="curve" smooth="yes"/>
      <point x="969" y="2533"/>
      <point x="995" y="2444"/>
      <point x="1106" y="2444" type="curve" smooth="yes"/>
      <point x="1237" y="2444"/>
      <point x="1325" y="2783"/>
      <point x="1325" y="2935" type="curve" smooth="yes"/>
      <point x="1325" y="3038"/>
      <point x="1299" y="3128"/>
      <point x="1188" y="3128" type="curve" smooth="yes"/>
      <point x="1057" y="3128"/>
      <point x="969" y="2788"/>
    </contour>
  </outline>
</glyph>
<glyph name="ogonek" format="2">
  <advance width="1099"/>
  <unicode hex="02DB"/>
  <outline>
    <contour>
      <point x="706" y="-226" type="line"/>
      <point x="676" y="-282"/>
      <point x="598" y="-392"/>
      <point x="426" y="-392" type="curve" smooth="yes"/>
      <point x="304" y="-392"/>
      <point x="198" y="-351"/>
      <point x="198" y="-241" type="curve" smooth="yes"/>
      <point x="198" y="-81"/>
      <point x="456" y="36"/>
      <point x="618" y="86" type="curve"/>
      <point x="622" y="79" type="line"/>
      <point x="560" y="41"/>
      <point x="471" y="-74"/>
      <point x="471" y="-218" type="curve" smooth="yes"/>
      <point x="471" y="-300"/>
      <point x="498" y="-347"/>
      <point x="541" y="-347" type="curve" smooth="yes"/>
      <point x="613" y="-347"/>
      <point x="673" y="-268"/>
      <point x="697" y="-222" type="curve"/>
    </contour>
  </outline>
</glyph>
<glyph name="tilde" format="2">
  <advance width="895"/>
  <unicode hex="02DC"/>
  <outline>
    <contour>
      <point x="452" y="1308" type="curve" smooth="yes"/>
      <point x="388" y="1308"/>
      <point x="342" y="1284"/>
      <point x="302" y="1200" type="curve"/>
      <point x="290" y="1200" type="line"/>
      <point x="330" y="1370"/>
      <point x="420" y="1484"/>
      <point x="548" y="1484" type="curve" smooth="yes"/>
      <point x="688" y="1484"/>
      <point x="776" y="1326"/>
      <point x="884" y="1326" type="curve" smooth="yes"/>
      <point x="948" y="1326"/>
      <point x="994" y="1350"/>
      <point x="1034" y="1434" type="curve"/>
      <point x="1046" y="1434" type="line"/>
      <point x="1006" y="1244"/>
      <point x="936" y="1150"/>
      <point x="808" y="1150" type="curve" smooth="yes"/>
      <point x="654" y="1150"/>
      <point x="574" y="1308"/>
    </contour>
  </outline>
</glyph>
<glyph name="uni1E9E" format="2">
  <advance width="1711"/>
  <unicode hex="1E9E"/>
  <outline>
    <contour>
      <point x="673" y="292" type="curve" smooth="yes"/>
      <point x="673" y="399"/>
      <point x="740" y="482"/>
      <point x="840" y="482" type="curve" smooth="yes"/>
      <point x="930" y="482"/>
      <point x="998" y="422"/>
      <point x="998" y="330" type="curve" smooth="yes"/>
      <point x="998" y="246"/>
      <point x="912" y="180"/>
      <point x="834" y="180" type="curve" smooth="yes"/>
      <point x="752" y="180"/>
      <point x="712" y="226"/>
      <point x="691" y="263" type="curve"/>
      <point x="701" y="111"/>
      <point x="813" y="-2"/>
      <point x="1007" y="-2" type="curve" smooth="yes"/>
      <point x="1235" y="-2"/>
      <point x="1335" y="272"/>
      <point x="1335" y="480" type="curve" smooth="yes"/>
      <point x="1335" y="648"/>
      <point x="1274" y="804"/>
      <point x="1086" y="804" type="curve"/>
      <point x="1086" y="814" type="line"/>
      <point x="1468" y="814"/>
      <point x="1652" y="710"/>
      <point x="1652" y="470" type="curve" smooth="yes"/>
      <point x="1652" y="130"/>
      <point x="1339" y="-20"/>
      <point x="1037" y="-20" type="curve" smooth="yes"/>
      <point x="771" y="-20"/>
      <point x="673" y="130"/>
    </contour>
    <contour>
      <point x="-50" y="12" type="line"/>
      <point x="620" y="12" type="line"/>
      <point x="620" y="0" type="line"/>
      <point x="-50" y="0" type="line"/>
    </contour>
    <contour>
      <point x="1086" y="808" type="curve"/>
      <point x="1086" y="818" type="line"/>
      <point x="1394" y="818"/>
      <point x="1455" y="1104"/>
      <point x="1455" y="1252" type="curve" smooth="yes"/>
      <point x="1455" y="1376"/>
      <point x="1394" y="1510"/>
      <point x="1186" y="1510" type="curve" smooth="yes"/>
      <point x="848" y="1510"/>
      <point x="719" y="1210"/>
      <point x="650" y="912" type="curve" smooth="yes"/>
      <point x="440" y="0" type="line"/>
      <point x="130" y="0" type="line"/>
      <point x="345" y="932" type="line" smooth="yes"/>
      <point x="432" y="1317"/>
      <point x="740" y="1520"/>
      <point x="1196" y="1520" type="curve" smooth="yes"/>
      <point x="1552" y="1520"/>
      <point x="1777" y="1418"/>
      <point x="1777" y="1212" type="curve" smooth="yes"/>
      <point x="1777" y="1002"/>
      <point x="1538" y="808"/>
    </contour>
  </outline>
</glyph>
<glyph name="perthousand" format="2">
  <advance width="2989"/>
  <unicode hex="2030"/>
  <outline>
    <contour>
      <point x="2450" y="-20" type="curve" smooth="yes"/>
      <point x="2244" y="-20"/>
      <point x="2100" y="74"/>
      <point x="2100" y="280" type="curve" smooth="yes"/>
      <point x="2100" y="606"/>
      <point x="2344" y="860"/>
      <point x="2630" y="860" type="curve" smooth="yes"/>
      <point x="2836" y="860"/>
      <point x="2980" y="766"/>
      <point x="2980" y="560" type="curve" smooth="yes"/>
      <point x="2980" y="234"/>
      <point x="2736" y="-20"/>
    </contour>
    <contour>
      <point x="2640" y="849" type="curve" smooth="yes"/>
      <point x="2522" y="849"/>
      <point x="2370" y="373"/>
      <point x="2370" y="159" type="curve" smooth="yes"/>
      <point x="2370" y="67"/>
      <point x="2392" y="-8"/>
      <point x="2440" y="-8" type="curve" smooth="yes"/>
      <point x="2558" y="-8"/>
      <point x="2705" y="458"/>
      <point x="2705" y="672" type="curve" smooth="yes"/>
      <point x="2705" y="764"/>
      <point x="2688" y="849"/>
    </contour>
    <contour>
      <point x="1460" y="-20" type="curve" smooth="yes"/>
      <point x="1254" y="-20"/>
      <point x="1110" y="74"/>
      <point x="1110" y="280" type="curve" smooth="yes"/>
      <point x="1110" y="606"/>
      <point x="1354" y="860"/>
      <point x="1640" y="860" type="curve" smooth="yes"/>
      <point x="1846" y="860"/>
      <point x="1990" y="766"/>
      <point x="1990" y="560" type="curve" smooth="yes"/>
      <point x="1990" y="234"/>
      <point x="1746" y="-20"/>
    </contour>
    <contour>
      <point x="1650" y="849" type="curve" smooth="yes"/>
      <point x="1532" y="849"/>
      <point x="1380" y="373"/>
      <point x="1380" y="159" type="curve" smooth="yes"/>
      <point x="1380" y="67"/>
      <point x="1402" y="-8"/>
      <point x="1450" y="-8" type="curve" smooth="yes"/>
      <point x="1568" y="-8"/>
      <point x="1715" y="458"/>
      <point x="1715" y="672" type="curve" smooth="yes"/>
      <point x="1715" y="764"/>
      <point x="1698" y="849"/>
    </contour>
    <contour>
      <point x="1774" y="1500" type="line"/>
      <point x="1790" y="1500" type="line"/>
      <point x="402" y="0" type="line"/>
      <point x="386" y="0" type="line"/>
    </contour>
    <contour>
      <point x="550" y="640" type="curve" smooth="yes"/>
      <point x="344" y="640"/>
      <point x="200" y="734"/>
      <point x="200" y="940" type="curve" smooth="yes"/>
      <point x="200" y="1266"/>
      <point x="444" y="1520"/>
      <point x="730" y="1520" type="curve" smooth="yes"/>
      <point x="936" y="1520"/>
      <point x="1080" y="1426"/>
      <point x="1080" y="1220" type="curve" smooth="yes"/>
      <point x="1080" y="894"/>
      <point x="836" y="640"/>
    </contour>
    <contour>
      <point x="740" y="1508" type="curve" smooth="yes"/>
      <point x="622" y="1508"/>
      <point x="470" y="1033"/>
      <point x="470" y="819" type="curve" smooth="yes"/>
      <point x="470" y="727"/>
      <point x="492" y="652"/>
      <point x="540" y="652" type="curve" smooth="yes"/>
      <point x="658" y="652"/>
      <point x="805" y="1132"/>
      <point x="805" y="1346" type="curve" smooth="yes"/>
      <point x="805" y="1438"/>
      <point x="788" y="1508"/>
    </contour>
  </outline>
</glyph>
<glyph name="uni203D" format="2">
  <advance width="2456"/>
  <unicode hex="203D"/>
  <outline>
    <contour>
      <point x="1794" y="2228" type="curve" smooth="yes"/>
      <point x="1720" y="1792"/>
      <point x="1319" y="1609"/>
      <point x="1155" y="995" type="curve"/>
      <point x="1131" y="995" type="line"/>
      <point x="1253" y="1609"/>
      <point x="1187" y="1773"/>
      <point x="1187" y="2085" type="curve" smooth="yes"/>
      <point x="1187" y="2356"/>
      <point x="1270" y="2552"/>
      <point x="1511" y="2552" type="curve" smooth="yes"/>
      <point x="1696" y="2552"/>
      <point x="1826" y="2416"/>
    </contour>
    <contour>
      <point x="2064" y="2498" type="curve" smooth="yes"/>
      <point x="2064" y="2802"/>
      <point x="1946" y="3082"/>
      <point x="1561" y="3082" type="curve" smooth="yes"/>
      <point x="1082" y="3082"/>
      <point x="639" y="2756"/>
      <point x="551" y="2500" type="curve"/>
      <point x="596" y="2549"/>
      <point x="701" y="2626"/>
      <point x="811" y="2626" type="curve" smooth="yes"/>
      <point x="950" y="2626"/>
      <point x="1102" y="2519"/>
      <point x="1102" y="2324" type="curve" smooth="yes"/>
      <point x="1102" y="2099"/>
      <point x="909" y="2003"/>
      <point x="766" y="2003" type="curve" smooth="yes"/>
      <point x="603" y="2003"/>
      <point x="471" y="2129"/>
      <point x="471" y="2338" type="curve" smooth="yes"/>
      <point x="471" y="2715"/>
      <point x="1021" y="3112"/>
      <point x="1602" y="3112" type="curve" smooth="yes"/>
      <point x="2138" y="3112"/>
      <point x="2642" y="2928"/>
      <point x="2642" y="2416" type="curve" smooth="yes"/>
      <point x="2642" y="1801"/>
      <point x="1914" y="1372"/>
      <point x="1262" y="1372" type="curve"/>
      <point x="1262" y="1388" type="line"/>
      <point x="1692" y="1514"/>
      <point x="2064" y="1994"/>
    </contour>
    <component base="period" xOffset="549"/>
  </outline>
</glyph>
<glyph name="Euro" format="2">
  <advance width="1529"/>
  <unicode hex="20AC"/>
  <outline>
    <contour>
      <point x="1565" y="1275" type="curve"/>
      <point x="1542" y="1364"/>
      <point x="1409" y="1505"/>
      <point x="1209" y="1505" type="curve" smooth="yes"/>
      <point x="831" y="1505"/>
      <point x="618" y="868"/>
      <point x="618" y="410" type="curve" smooth="yes"/>
      <point x="618" y="182"/>
      <point x="712" y="0"/>
      <point x="890" y="0" type="curve" smooth="yes"/>
      <point x="1080" y="0"/>
      <point x="1303" y="167"/>
      <point x="1374" y="356" type="curve"/>
      <point x="1386" y="356" type="line"/>
      <point x="1314" y="162"/>
      <point x="1088" y="-20"/>
      <point x="846" y="-20" type="curve" smooth="yes"/>
      <point x="584" y="-20"/>
      <point x="288" y="140"/>
      <point x="288" y="550" type="curve" smooth="yes"/>
      <point x="288" y="1100"/>
      <point x="706" y="1520"/>
      <point x="1188" y="1520" type="curve" smooth="yes"/>
      <point x="1432" y="1520"/>
      <point x="1600" y="1336"/>
      <point x="1600" y="1202" type="curve" smooth="yes"/>
      <point x="1600" y="1090"/>
      <point x="1516" y="1028"/>
      <point x="1436" y="1028" type="curve" smooth="yes"/>
      <point x="1366" y="1028"/>
      <point x="1272" y="1080"/>
      <point x="1272" y="1190" type="curve" smooth="yes"/>
      <point x="1272" y="1290"/>
      <point x="1363" y="1350"/>
      <point x="1441" y="1350" type="curve" smooth="yes"/>
      <point x="1500" y="1350"/>
      <point x="1547" y="1309"/>
    </contour>
    <component base="equal" xOffset="-60" yOffset="-140"/>
  </outline>
</glyph>
<glyph name="uniFB00" format="2">
  <advance width="1449"/>
  <unicode hex="FB00"/>
  <outline>
    <contour>
      <point x="138" y="920" type="line"/>
      <point x="1488" y="920" type="line"/>
      <point x="1488" y="908" type="line"/>
      <point x="138" y="908" type="line"/>
    </contour>
    <contour>
      <point x="1733" y="1361" type="curve"/>
      <point x="1713" y="1429"/>
      <point x="1626" y="1506"/>
      <point x="1503" y="1506" type="curve" smooth="yes"/>
      <point x="1363" y="1506"/>
      <point x="1271" y="1324"/>
      <point x="1228" y="1080" type="curve" smooth="yes"/>
      <point x="1051" y="76" type="line" smooth="yes"/>
      <point x="994" y="-244"/>
      <point x="776" y="-420"/>
      <point x="506" y="-420" type="curve" smooth="yes"/>
      <point x="304" y="-420"/>
      <point x="206" y="-296"/>
      <point x="206" y="-192" type="curve" smooth="yes"/>
      <point x="206" y="-90"/>
      <point x="269" y="-28"/>
      <point x="359" y="-28" type="curve" smooth="yes"/>
      <point x="439" y="-28"/>
      <point x="522" y="-76"/>
      <point x="522" y="-176" type="curve" smooth="yes"/>
      <point x="522" y="-276"/>
      <point x="448" y="-331"/>
      <point x="362" y="-331" type="curve" smooth="yes"/>
      <point x="307" y="-331"/>
      <point x="259" y="-300"/>
      <point x="243" y="-261" type="curve"/>
      <point x="263" y="-329"/>
      <point x="350" y="-406"/>
      <point x="483" y="-406" type="curve" smooth="yes"/>
      <point x="633" y="-406"/>
      <point x="726" y="-224"/>
      <point x="768" y="20" type="curve" smooth="yes"/>
      <point x="944" y="1024" type="line" smooth="yes"/>
      <point x="1000" y="1344"/>
      <point x="1220" y="1520"/>
      <point x="1480" y="1520" type="curve" smooth="yes"/>
      <point x="1672" y="1520"/>
      <point x="1770" y="1396"/>
      <point x="1770" y="1292" type="curve" smooth="yes"/>
      <point x="1770" y="1190"/>
      <point x="1707" y="1128"/>
      <point x="1617" y="1128" type="curve" smooth="yes"/>
      <point x="1537" y="1128"/>
      <point x="1454" y="1176"/>
      <point x="1454" y="1276" type="curve" smooth="yes"/>
      <point x="1454" y="1376"/>
      <point x="1528" y="1431"/>
      <point x="1614" y="1431" type="curve" smooth="yes"/>
      <point x="1669" y="1431"/>
      <point x="1715" y="1400"/>
    </contour>
    <contour>
      <point x="1113" y="1261" type="curve"/>
      <point x="1093" y="1329"/>
      <point x="1006" y="1406"/>
      <point x="873" y="1406" type="curve" smooth="yes"/>
      <point x="723" y="1406"/>
      <point x="633" y="1234"/>
      <point x="590" y="990" type="curve" smooth="yes"/>
      <point x="411" y="-24" type="line" smooth="yes"/>
      <point x="354" y="-344"/>
      <point x="136" y="-520"/>
      <point x="-124" y="-520" type="curve" smooth="yes"/>
      <point x="-316" y="-520"/>
      <point x="-414" y="-396"/>
      <point x="-414" y="-292" type="curve" smooth="yes"/>
      <point x="-414" y="-190"/>
      <point x="-351" y="-128"/>
      <point x="-261" y="-128" type="curve" smooth="yes"/>
      <point x="-181" y="-128"/>
      <point x="-98" y="-176"/>
      <point x="-98" y="-276" type="curve" smooth="yes"/>
      <point x="-98" y="-376"/>
      <point x="-172" y="-431"/>
      <point x="-258" y="-431" type="curve" smooth="yes"/>
      <point x="-313" y="-431"/>
      <point x="-361" y="-400"/>
      <point x="-377" y="-361" type="curve"/>
      <point x="-357" y="-429"/>
      <point x="-270" y="-506"/>
      <point x="-147" y="-506" type="curve" smooth="yes"/>
      <point x="-7" y="-506"/>
      <point x="86" y="-324"/>
      <point x="128" y="-80" type="curve" smooth="yes"/>
      <point x="304" y="924" type="line" smooth="yes"/>
      <point x="360" y="1244"/>
      <point x="580" y="1420"/>
      <point x="850" y="1420" type="curve" smooth="yes"/>
      <point x="1052" y="1420"/>
      <point x="1150" y="1296"/>
      <point x="1150" y="1192" type="curve" smooth="yes"/>
      <point x="1150" y="1090"/>
      <point x="1087" y="1028"/>
      <point x="997" y="1028" type="curve" smooth="yes"/>
      <point x="917" y="1028"/>
      <point x="834" y="1076"/>
      <point x="834" y="1176" type="curve" smooth="yes"/>
      <point x="834" y="1276"/>
      <point x="908" y="1331"/>
      <point x="994" y="1331" type="curve" smooth="yes"/>
      <point x="1049" y="1331"/>
      <point x="1095" y="1300"/>
    </contour>
  </outline>
</glyph>
<glyph name="uniFB01" format="2">
  <advance width="1376"/>
  <unicode hex="FB01"/>
  <outline>
    <contour>
      <point x="1337" y="326" type="line"/>
      <point x="1261" y="126"/>
      <point x="1123" y="-20"/>
      <point x="931" y="-20" type="curve" smooth="yes"/>
      <point x="807" y="-20"/>
      <point x="744" y="26"/>
      <point x="744" y="146" type="curve" smooth="yes"/>
      <point x="744" y="156"/>
      <point x="745" y="178"/>
      <point x="748" y="190" type="curve" smooth="yes"/>
      <point x="920" y="908" type="line"/>
      <point x="138" y="908" type="line"/>
      <point x="138" y="920" type="line"/>
      <point x="1203" y="920" type="line"/>
      <point x="1004" y="100" type="line" smooth="yes"/>
      <point x="1002" y="88"/>
      <point x="1000" y="74"/>
      <point x="1000" y="64" type="curve" smooth="yes"/>
      <point x="1000" y="42"/>
      <point x="1010" y="23"/>
      <point x="1036" y="23" type="curve" smooth="yes"/>
      <point x="1139" y="23"/>
      <point x="1262" y="154"/>
      <point x="1327" y="330" type="curve"/>
    </contour>
    <contour>
      <point x="1205" y="1361" type="curve"/>
      <point x="1181" y="1438"/>
      <point x="1088" y="1506"/>
      <point x="943" y="1506" type="curve" smooth="yes"/>
      <point x="765" y="1506"/>
      <point x="652" y="1332"/>
      <point x="608" y="1080" type="curve" smooth="yes"/>
      <point x="411" y="-24" type="line" smooth="yes"/>
      <point x="354" y="-343"/>
      <point x="136" y="-520"/>
      <point x="-124" y="-520" type="curve" smooth="yes"/>
      <point x="-316" y="-520"/>
      <point x="-414" y="-396"/>
      <point x="-414" y="-292" type="curve" smooth="yes"/>
      <point x="-414" y="-190"/>
      <point x="-351" y="-128"/>
      <point x="-261" y="-128" type="curve" smooth="yes"/>
      <point x="-181" y="-128"/>
      <point x="-98" y="-176"/>
      <point x="-98" y="-276" type="curve" smooth="yes"/>
      <point x="-98" y="-376"/>
      <point x="-172" y="-431"/>
      <point x="-258" y="-431" type="curve" smooth="yes"/>
      <point x="-313" y="-431"/>
      <point x="-361" y="-400"/>
      <point x="-377" y="-361" type="curve"/>
      <point x="-357" y="-429"/>
      <point x="-270" y="-506"/>
      <point x="-147" y="-506" type="curve" smooth="yes"/>
      <point x="-7" y="-506"/>
      <point x="86" y="-324"/>
      <point x="128" y="-80" type="curve" smooth="yes"/>
      <point x="324" y="1024" type="line" smooth="yes"/>
      <point x="380" y="1344"/>
      <point x="620" y="1520"/>
      <point x="920" y="1520" type="curve" smooth="yes"/>
      <point x="1142" y="1520"/>
      <point x="1240" y="1404"/>
      <point x="1240" y="1292" type="curve" smooth="yes"/>
      <point x="1240" y="1190"/>
      <point x="1177" y="1128"/>
      <point x="1087" y="1128" type="curve" smooth="yes"/>
      <point x="1007" y="1128"/>
      <point x="924" y="1176"/>
      <point x="924" y="1276" type="curve" smooth="yes"/>
      <point x="924" y="1376"/>
      <point x="998" y="1431"/>
      <point x="1084" y="1431" type="curve" smooth="yes"/>
      <point x="1139" y="1431"/>
      <point x="1187" y="1400"/>
    </contour>
  </outline>
</glyph>
<glyph name="uniFB02" format="2">
  <advance width="1457"/>
  <unicode hex="FB02"/>
  <outline>
    <contour>
      <point x="1418" y="326" type="line"/>
      <point x="1342" y="126"/>
      <point x="1204" y="-20"/>
      <point x="1012" y="-20" type="curve" smooth="yes"/>
      <point x="888" y="-20"/>
      <point x="825" y="26"/>
      <point x="825" y="146" type="curve" smooth="yes"/>
      <point x="825" y="156"/>
      <point x="827" y="178"/>
      <point x="829" y="190" type="curve" smooth="yes"/>
      <point x="1120" y="1460" type="line"/>
      <point x="1418" y="1540" type="line"/>
      <point x="1085" y="100" type="line" smooth="yes"/>
      <point x="1083" y="88"/>
      <point x="1081" y="74"/>
      <point x="1081" y="64" type="curve" smooth="yes"/>
      <point x="1081" y="42"/>
      <point x="1091" y="23"/>
      <point x="1117" y="23" type="curve" smooth="yes"/>
      <point x="1220" y="23"/>
      <point x="1345" y="159"/>
      <point x="1408" y="330" type="curve"/>
    </contour>
    <contour>
      <point x="138" y="920" type="line"/>
      <point x="868" y="920" type="line"/>
      <point x="868" y="908" type="line"/>
      <point x="138" y="908" type="line"/>
    </contour>
    <contour>
      <point x="1210" y="1292" type="curve" smooth="yes"/>
      <point x="1210" y="1190"/>
      <point x="1147" y="1128"/>
      <point x="1057" y="1128" type="curve" smooth="yes"/>
      <point x="977" y="1128"/>
      <point x="894" y="1176"/>
      <point x="894" y="1276" type="curve" smooth="yes"/>
      <point x="894" y="1376"/>
      <point x="968" y="1431"/>
      <point x="1054" y="1431" type="curve" smooth="yes"/>
      <point x="1109" y="1431"/>
      <point x="1155" y="1400"/>
      <point x="1173" y="1361" type="curve"/>
      <point x="1153" y="1429"/>
      <point x="1072" y="1506"/>
      <point x="941" y="1506" type="curve" smooth="yes"/>
      <point x="775" y="1506"/>
      <point x="651" y="1324"/>
      <point x="608" y="1080" type="curve" smooth="yes"/>
      <point x="411" y="-24" type="line" smooth="yes"/>
      <point x="354" y="-343"/>
      <point x="136" y="-520"/>
      <point x="-124" y="-520" type="curve" smooth="yes"/>
      <point x="-316" y="-520"/>
      <point x="-414" y="-396"/>
      <point x="-414" y="-292" type="curve" smooth="yes"/>
      <point x="-414" y="-190"/>
      <point x="-351" y="-128"/>
      <point x="-261" y="-128" type="curve" smooth="yes"/>
      <point x="-181" y="-128"/>
      <point x="-98" y="-176"/>
      <point x="-98" y="-276" type="curve" smooth="yes"/>
      <point x="-98" y="-376"/>
      <point x="-172" y="-431"/>
      <point x="-258" y="-431" type="curve" smooth="yes"/>
      <point x="-313" y="-431"/>
      <point x="-361" y="-400"/>
      <point x="-377" y="-361" type="curve"/>
      <point x="-357" y="-429"/>
      <point x="-270" y="-506"/>
      <point x="-147" y="-506" type="curve" smooth="yes"/>
      <point x="-7" y="-506"/>
      <point x="86" y="-324"/>
      <point x="128" y="-80" type="curve" smooth="yes"/>
      <point x="324" y="1024" type="line" smooth="yes"/>
      <point x="380" y="1346"/>
      <point x="632" y="1520"/>
      <point x="920" y="1520" type="curve" smooth="yes"/>
      <point x="1117" y="1520"/>
      <point x="1210" y="1404"/>
    </contour>
  </outline>
</glyph>
<glyph name="uniFB04" format="2">
  <advance width="2077"/>
  <unicode hex="FB04"/>
  <outline>
    <contour>
      <point x="2038" y="326" type="line"/>
      <point x="1962" y="126"/>
      <point x="1824" y="-20"/>
      <point x="1632" y="-20" type="curve" smooth="yes"/>
      <point x="1508" y="-20"/>
      <point x="1445" y="26"/>
      <point x="1445" y="146" type="curve" smooth="yes"/>
      <point x="1445" y="156"/>
      <point x="1447" y="178"/>
      <point x="1449" y="190" type="curve" smooth="yes"/>
      <point x="1740" y="1460" type="line"/>
      <point x="2038" y="1540" type="line"/>
      <point x="1705" y="100" type="line" smooth="yes"/>
      <point x="1703" y="88"/>
      <point x="1701" y="74"/>
      <point x="1701" y="64" type="curve" smooth="yes"/>
      <point x="1701" y="42"/>
      <point x="1711" y="23"/>
      <point x="1737" y="23" type="curve" smooth="yes"/>
      <point x="1840" y="23"/>
      <point x="1965" y="159"/>
      <point x="2028" y="330" type="curve"/>
    </contour>
    <contour>
      <point x="138" y="920" type="line"/>
      <point x="1488" y="920" type="line"/>
      <point x="1488" y="908" type="line"/>
      <point x="138" y="908" type="line"/>
    </contour>
    <contour>
      <point x="1793" y="1361" type="curve"/>
      <point x="1773" y="1429"/>
      <point x="1692" y="1506"/>
      <point x="1561" y="1506" type="curve" smooth="yes"/>
      <point x="1395" y="1506"/>
      <point x="1271" y="1324"/>
      <point x="1228" y="1080" type="curve" smooth="yes"/>
      <point x="1051" y="76" type="line" smooth="yes"/>
      <point x="994" y="-244"/>
      <point x="780" y="-420"/>
      <point x="510" y="-420" type="curve" smooth="yes"/>
      <point x="308" y="-420"/>
      <point x="210" y="-296"/>
      <point x="210" y="-192" type="curve" smooth="yes"/>
      <point x="210" y="-90"/>
      <point x="273" y="-28"/>
      <point x="363" y="-28" type="curve" smooth="yes"/>
      <point x="443" y="-28"/>
      <point x="526" y="-76"/>
      <point x="526" y="-176" type="curve" smooth="yes"/>
      <point x="526" y="-276"/>
      <point x="452" y="-331"/>
      <point x="366" y="-331" type="curve" smooth="yes"/>
      <point x="311" y="-331"/>
      <point x="263" y="-300"/>
      <point x="247" y="-261" type="curve"/>
      <point x="267" y="-329"/>
      <point x="354" y="-406"/>
      <point x="487" y="-406" type="curve" smooth="yes"/>
      <point x="637" y="-406"/>
      <point x="730" y="-224"/>
      <point x="772" y="20" type="curve" smooth="yes"/>
      <point x="944" y="1024" type="line" smooth="yes"/>
      <point x="1000" y="1346"/>
      <point x="1252" y="1520"/>
      <point x="1540" y="1520" type="curve" smooth="yes"/>
      <point x="1742" y="1520"/>
      <point x="1830" y="1396"/>
      <point x="1830" y="1292" type="curve" smooth="yes"/>
      <point x="1830" y="1190"/>
      <point x="1767" y="1128"/>
      <point x="1677" y="1128" type="curve" smooth="yes"/>
      <point x="1597" y="1128"/>
      <point x="1514" y="1176"/>
      <point x="1514" y="1276" type="curve" smooth="yes"/>
      <point x="1514" y="1376"/>
      <point x="1588" y="1431"/>
      <point x="1674" y="1431" type="curve" smooth="yes"/>
      <point x="1729" y="1431"/>
      <point x="1775" y="1400"/>
    </contour>
    <contour>
      <point x="1113" y="1261" type="curve"/>
      <point x="1093" y="1329"/>
      <point x="1006" y="1406"/>
      <point x="873" y="1406" type="curve" smooth="yes"/>
      <point x="723" y="1406"/>
      <point x="633" y="1234"/>
      <point x="590" y="990" type="curve" smooth="yes"/>
      <point x="411" y="-24" type="line" smooth="yes"/>
      <point x="354" y="-344"/>
      <point x="136" y="-520"/>
      <point x="-124" y="-520" type="curve" smooth="yes"/>
      <point x="-316" y="-520"/>
      <point x="-414" y="-396"/>
      <point x="-414" y="-292" type="curve" smooth="yes"/>
      <point x="-414" y="-190"/>
      <point x="-351" y="-128"/>
      <point x="-261" y="-128" type="curve" smooth="yes"/>
      <point x="-181" y="-128"/>
      <point x="-98" y="-176"/>
      <point x="-98" y="-276" type="curve" smooth="yes"/>
      <point x="-98" y="-376"/>
      <point x="-172" y="-431"/>
      <point x="-258" y="-431" type="curve" smooth="yes"/>
      <point x="-313" y="-431"/>
      <point x="-361" y="-400"/>
      <point x="-377" y="-361" type="curve"/>
      <point x="-357" y="-429"/>
      <point x="-270" y="-506"/>
      <point x="-147" y="-506" type="curve" smooth="yes"/>
      <point x="-7" y="-506"/>
      <point x="86" y="-324"/>
      <point x="128" y="-80" type="curve" smooth="yes"/>
      <point x="304" y="924" type="line" smooth="yes"/>
      <point x="360" y="1244"/>
      <point x="580" y="1420"/>
      <point x="850" y="1420" type="curve" smooth="yes"/>
      <point x="1052" y="1420"/>
      <point x="1150" y="1296"/>
      <point x="1150" y="1192" type="curve" smooth="yes"/>
      <point x="1150" y="1090"/>
      <point x="1087" y="1028"/>
      <point x="997" y="1028" type="curve" smooth="yes"/>
      <point x="917" y="1028"/>
      <point x="834" y="1076"/>
      <point x="834" y="1176" type="curve" smooth="yes"/>
      <point x="834" y="1276"/>
      <point x="908" y="1331"/>
      <point x="994" y="1331" type="curve" smooth="yes"/>
      <point x="1049" y="1331"/>
      <point x="1095" y="1300"/>
    </contour>
  </outline>
</glyph>
<glyph name="J.alt" format="2">
  <advance width="1256"/>
  <outline>
    <contour>
      <point x="732" y="1500" type="line"/>
      <point x="1487" y="1500" type="line"/>
      <point x="1487" y="1488" type="line"/>
      <point x="732" y="1488" type="line"/>
    </contour>
    <contour>
      <point x="972" y="1500" type="line"/>
      <point x="1287" y="1500" type="line"/>
      <point x="1067" y="560" type="line" smooth="yes"/>
      <point x="995" y="256"/>
      <point x="684" y="-20"/>
      <point x="362" y="-20" type="curve" smooth="yes"/>
      <point x="148" y="-20"/>
      <point x="10" y="129"/>
      <point x="10" y="319" type="curve" smooth="yes"/>
      <point x="10" y="483"/>
      <point x="104" y="580"/>
      <point x="224" y="580" type="curve" smooth="yes"/>
      <point x="334" y="580"/>
      <point x="416" y="514"/>
      <point x="416" y="392" type="curve" smooth="yes"/>
      <point x="416" y="292"/>
      <point x="332" y="206"/>
      <point x="214" y="206" type="curve" smooth="yes"/>
      <point x="116" y="206"/>
      <point x="44" y="277"/>
      <point x="26" y="325" type="curve"/>
      <point x="19" y="142"/>
      <point x="158" y="-8"/>
      <point x="362" y="-8" type="curve" smooth="yes"/>
      <point x="604" y="-8"/>
      <point x="694" y="232"/>
      <point x="752" y="500" type="curve" smooth="yes"/>
    </contour>
  </outline>
</glyph>
<glyph name="R.alt" format="2">
  <advance width="1499"/>
  <outline>
    <contour>
      <point x="1345" y="0" type="line"/>
      <point x="1313" y="0"/>
      <point x="1237" y="0"/>
      <point x="1165" y="0" type="curve" smooth="yes"/>
      <point x="619" y="0"/>
      <point x="1177" y="764"/>
      <point x="705" y="764" type="curve" smooth="yes"/>
      <point x="535" y="764" type="line"/>
      <point x="535" y="770" type="line"/>
      <point x="795" y="770" type="line" smooth="yes"/>
      <point x="1511" y="770"/>
      <point x="1049" y="12"/>
      <point x="1295" y="12" type="curve" smooth="yes"/>
      <point x="1317" y="12"/>
      <point x="1345" y="12"/>
      <point x="1345" y="12" type="curve"/>
    </contour>
    <contour>
      <point x="465" y="1500" type="line"/>
      <point x="775" y="1500" type="line"/>
      <point x="425" y="0" type="line"/>
      <point x="115" y="0" type="line"/>
    </contour>
    <contour>
      <point x="-75" y="12" type="line"/>
      <point x="645" y="12" type="line"/>
      <point x="645" y="0" type="line"/>
      <point x="-75" y="0" type="line"/>
    </contour>
    <contour>
      <point x="795" y="766" type="curve" smooth="yes"/>
      <point x="535" y="766" type="line"/>
      <point x="535" y="776" type="line"/>
      <point x="745" y="776" type="line" smooth="yes"/>
      <point x="1027" y="776"/>
      <point x="1130" y="1072"/>
      <point x="1130" y="1250" type="curve" smooth="yes"/>
      <point x="1130" y="1348"/>
      <point x="1097" y="1488"/>
      <point x="925" y="1488" type="curve" smooth="yes"/>
      <point x="255" y="1488" type="line"/>
      <point x="255" y="1500" type="line"/>
      <point x="995" y="1500" type="line" smooth="yes"/>
      <point x="1257" y="1500"/>
      <point x="1455" y="1420"/>
      <point x="1455" y="1200" type="curve" smooth="yes"/>
      <point x="1455" y="920"/>
      <point x="1197" y="766"/>
    </contour>
  </outline>
</glyph>
<glyph name="fj.lig" format="2">
  <advance width="1315"/>
  <outline>
    <contour>
      <point x="754" y="80" type="curve" smooth="yes"/>
      <point x="926" y="907" type="line"/>
      <point x="138" y="908" type="line"/>
      <point x="138" y="920" type="line"/>
      <point x="1206" y="920" type="line"/>
      <point x="1041" y="76" type="line" smooth="yes"/>
      <point x="992" y="-175"/>
      <point x="766" y="-420"/>
      <point x="496" y="-420" type="curve" smooth="yes"/>
      <point x="314" y="-420"/>
      <point x="200" y="-306"/>
      <point x="200" y="-197" type="curve" smooth="yes"/>
      <point x="200" y="-95"/>
      <point x="279" y="-28"/>
      <point x="369" y="-28" type="curve" smooth="yes"/>
      <point x="449" y="-28"/>
      <point x="526" y="-83"/>
      <point x="526" y="-170" type="curve" smooth="yes"/>
      <point x="526" y="-267"/>
      <point x="446" y="-329"/>
      <point x="363" y="-329" type="curve" smooth="yes"/>
      <point x="303" y="-329"/>
      <point x="251" y="-294"/>
      <point x="242" y="-260" type="curve"/>
      <point x="267" y="-338"/>
      <point x="359" y="-407"/>
      <point x="491" y="-407" type="curve" smooth="yes"/>
      <point x="671" y="-407"/>
      <point x="703" y="-161"/>
    </contour>
    <contour>
      <point x="1208" y="1354" type="curve"/>
      <point x="1186" y="1433"/>
      <point x="1097" y="1506"/>
      <point x="943" y="1506" type="curve" smooth="yes"/>
      <point x="773" y="1506"/>
      <point x="651" y="1324"/>
      <point x="608" y="1080" type="curve" smooth="yes"/>
      <point x="411" y="-24" type="line" smooth="yes"/>
      <point x="354" y="-343"/>
      <point x="140" y="-520"/>
      <point x="-120" y="-520" type="curve" smooth="yes"/>
      <point x="-312" y="-520"/>
      <point x="-410" y="-396"/>
      <point x="-410" y="-292" type="curve" smooth="yes"/>
      <point x="-410" y="-190"/>
      <point x="-347" y="-128"/>
      <point x="-257" y="-128" type="curve" smooth="yes"/>
      <point x="-177" y="-128"/>
      <point x="-94" y="-176"/>
      <point x="-94" y="-276" type="curve" smooth="yes"/>
      <point x="-94" y="-376"/>
      <point x="-172" y="-431"/>
      <point x="-258" y="-431" type="curve" smooth="yes"/>
      <point x="-325" y="-431"/>
      <point x="-368" y="-378"/>
      <point x="-377" y="-354" type="curve"/>
      <point x="-359" y="-419"/>
      <point x="-277" y="-505"/>
      <point x="-143" y="-505" type="curve" smooth="yes"/>
      <point x="-3" y="-505"/>
      <point x="90" y="-324"/>
      <point x="132" y="-80" type="curve" smooth="yes"/>
      <point x="324" y="1024" type="line" smooth="yes"/>
      <point x="380" y="1344"/>
      <point x="620" y="1520"/>
      <point x="920" y="1520" type="curve" smooth="yes"/>
      <point x="1152" y="1520"/>
      <point x="1240" y="1396"/>
      <point x="1240" y="1292" type="curve" smooth="yes"/>
      <point x="1240" y="1190"/>
      <point x="1177" y="1128"/>
      <point x="1087" y="1128" type="curve" smooth="yes"/>
      <point x="1007" y="1128"/>
      <point x="924" y="1176"/>
      <point x="924" y="1276" type="curve" smooth="yes"/>
      <point x="924" y="1376"/>
      <point x="1002" y="1431"/>
      <point x="1088" y="1431" type="curve" smooth="yes"/>
      <point x="1152" y="1431"/>
      <point x="1192" y="1385"/>
    </contour>
  </outline>
</glyph>
<glyph name="four.alt" format="2">
  <advance width="1309"/>
  <outline>
    <contour>
      <point x="1160" y="996" type="curve"/>
      <point x="938" y="-2" type="line"/>
      <point x="628" y="-2" type="line"/>
      <point x="830" y="906" type="line"/>
      <point x="930" y="906"/>
      <point x="1090" y="956"/>
    </contour>
    <contour>
      <point x="1104" y="12" type="line"/>
      <point x="1104" y="0" type="line"/>
      <point x="454" y="0" type="line"/>
      <point x="454" y="12" type="line"/>
    </contour>
    <contour>
      <point x="55" y="396" type="curve"/>
      <point x="1210" y="396" type="line"/>
      <point x="1210" y="384" type="line"/>
      <point x="30" y="384" type="line"/>
      <point x="340" y="784"/>
      <point x="850" y="1190"/>
      <point x="920" y="1500" type="curve"/>
      <point x="1256" y="1500" type="line"/>
      <point x="1208" y="1170"/>
      <point x="345" y="754"/>
    </contour>
  </outline>
</glyph>
<glyph name="v.alt" format="2">
  <advance width="1061"/>
  <outline>
    <contour>
      <point x="430" y="950" type="curve"/>
      <point x="434" y="942" type="line"/>
      <point x="352" y="896"/>
      <point x="330" y="842"/>
      <point x="330" y="770" type="curve" smooth="yes"/>
      <point x="330" y="600"/>
      <point x="548" y="518"/>
      <point x="548" y="270" type="curve" smooth="yes"/>
      <point x="548" y="236"/>
      <point x="539" y="131"/>
      <point x="535" y="85" type="curve"/>
      <point x="843" y="248"/>
      <point x="1040" y="426"/>
      <point x="1040" y="688" type="curve" smooth="yes"/>
      <point x="1040" y="717"/>
      <point x="1036" y="752"/>
      <point x="1027" y="766" type="curve"/>
      <point x="1018" y="707"/>
      <point x="964" y="610"/>
      <point x="844" y="610" type="curve" smooth="yes"/>
      <point x="734" y="610"/>
      <point x="674" y="694"/>
      <point x="674" y="774" type="curve" smooth="yes"/>
      <point x="674" y="864"/>
      <point x="742" y="938"/>
      <point x="846" y="938" type="curve" smooth="yes"/>
      <point x="1002" y="938"/>
      <point x="1052" y="810"/>
      <point x="1052" y="688" type="curve" smooth="yes"/>
      <point x="1052" y="350"/>
      <point x="736" y="166"/>
      <point x="346" y="-24" type="curve"/>
      <point x="245" y="-3" type="line"/>
      <point x="249" y="41"/>
      <point x="266" y="172"/>
      <point x="266" y="212" type="curve" smooth="yes"/>
      <point x="266" y="366"/>
      <point x="60" y="498"/>
      <point x="60" y="646" type="curve" smooth="yes"/>
      <point x="60" y="806"/>
      <point x="250" y="892"/>
    </contour>
  </outline>
</glyph>
